<svg version="1.1" xmlns="http://www.w3.org/2000/svg" viewBox="0 0 2627.083433333333 1766.1666666666665" width="2627.083433333333" height="1766.1666666666665">
  <!-- svg-source:excalidraw -->
  
  <defs>
    <style class="style-fonts">
      @font-face {
        font-family: "Virgil";
        src: url("https://excalidraw.com/Virgil.woff2");
      }
      @font-face {
        font-family: "Cascadia";
        src: url("https://excalidraw.com/Cascadia.woff2");
      }
    </style>
  </defs>
  <rect x="0" y="0" width="2627.083433333333" height="1766.1666666666665" fill="#ffffff"></rect><g transform="translate(1361.7499999999995 942.6666666666663) rotate(0 0.00004999999998744897 0.00004999999998744897)" stroke="none"><path fill="#000000" d="M 1.57,-1.57 Q 1.57,-1.57 1.77,-1.27 1.98,-0.98 2.09,-0.64 2.20,-0.29 2.19,0.05 2.18,0.41 2.05,0.75 1.93,1.09 1.70,1.37 1.48,1.65 1.18,1.84 0.87,2.04 0.52,2.12 0.18,2.21 -0.17,2.18 -0.53,2.15 -0.86,2.01 -1.19,1.87 -1.46,1.63 -1.73,1.39 -1.90,1.07 -2.08,0.76 -2.15,0.41 -2.21,0.05 -2.17,-0.29 -2.12,-0.65 -1.96,-0.97 -1.80,-1.29 -1.54,-1.54 -1.29,-1.80 -0.97,-1.96 -0.65,-2.12 -0.29,-2.17 0.06,-2.21 0.41,-2.15 0.76,-2.08 1.07,-1.90 1.39,-1.73 1.63,-1.46 1.87,-1.19 2.01,-0.86 2.15,-0.53 2.18,-0.17 2.21,0.18 2.12,0.52 2.03,0.87 1.84,1.18 1.65,1.48 1.37,1.70 1.09,1.93 0.75,2.05 0.41,2.18 0.05,2.19 -0.30,2.20 -0.64,2.09 -0.98,1.98 -1.27,1.77 -1.57,1.56 -1.57,1.57 -1.57,1.57 -1.73,1.35 -1.90,1.14 -2.01,0.90 -2.12,0.66 -2.16,0.39 -2.21,0.13 -2.20,-0.13 -2.18,-0.40 -2.10,-0.65 -2.02,-0.91 -1.88,-1.14 -1.74,-1.36 -1.55,-1.55 -1.36,-1.74 -1.14,-1.88 -0.91,-2.02 -0.65,-2.10 -0.40,-2.18 -0.13,-2.20 0.13,-2.21 0.39,-2.16 0.66,-2.12 0.90,-2.01 1.14,-1.90 1.35,-1.73 1.57,-1.57 1.57,-1.57 L 1.57,-1.57 Z"></path></g><g transform="translate(2297.7499999999995 429.33333333333303) rotate(0 0.00004999999998744897 0.00004999999998744897)" stroke="none"><path fill="#000000" d="M 1.57,-1.57 Q 1.57,-1.57 1.77,-1.27 1.98,-0.98 2.09,-0.64 2.20,-0.29 2.19,0.05 2.18,0.41 2.05,0.75 1.93,1.09 1.70,1.37 1.48,1.65 1.18,1.84 0.87,2.04 0.52,2.12 0.18,2.21 -0.17,2.18 -0.53,2.15 -0.86,2.01 -1.19,1.87 -1.46,1.63 -1.73,1.39 -1.90,1.07 -2.08,0.76 -2.15,0.41 -2.21,0.05 -2.17,-0.29 -2.12,-0.65 -1.96,-0.97 -1.80,-1.29 -1.54,-1.54 -1.29,-1.80 -0.97,-1.96 -0.65,-2.12 -0.29,-2.17 0.06,-2.21 0.41,-2.15 0.76,-2.08 1.07,-1.90 1.39,-1.73 1.63,-1.46 1.87,-1.19 2.01,-0.86 2.15,-0.53 2.18,-0.17 2.21,0.18 2.12,0.52 2.03,0.87 1.84,1.18 1.65,1.48 1.37,1.70 1.09,1.93 0.75,2.05 0.41,2.18 0.05,2.19 -0.30,2.20 -0.64,2.09 -0.98,1.98 -1.27,1.77 -1.57,1.56 -1.57,1.57 -1.57,1.57 -1.73,1.35 -1.90,1.14 -2.01,0.90 -2.12,0.66 -2.16,0.39 -2.21,0.13 -2.20,-0.13 -2.18,-0.40 -2.10,-0.65 -2.02,-0.91 -1.88,-1.14 -1.74,-1.36 -1.55,-1.55 -1.36,-1.74 -1.14,-1.88 -0.91,-2.02 -0.65,-2.10 -0.40,-2.18 -0.13,-2.20 0.13,-2.21 0.39,-2.16 0.66,-2.12 0.90,-2.01 1.14,-1.90 1.35,-1.73 1.57,-1.57 1.57,-1.57 L 1.57,-1.57 Z"></path></g><g stroke-linecap="round" transform="translate(987.9166666666665 66.66666666666652) rotate(0 183.75 163.75)"><path d="M268.91 17.63 C284.99 22.03, 298.79 33.85, 311.15 44.55 C323.5 55.25, 334.36 68.2, 343.05 81.85 C351.74 95.5, 359.34 111.51, 363.3 126.43 C367.25 141.35, 367.8 156.23, 366.78 171.37 C365.77 186.51, 362.91 202.74, 357.21 217.26 C351.51 231.79, 342.52 245.94, 332.6 258.51 C322.68 271.08, 311.24 282.97, 297.69 292.7 C284.13 302.43, 267.48 311.19, 251.25 316.88 C235.02 322.56, 217.29 325.43, 200.3 326.81 C183.32 328.2, 166.32 328.2, 149.32 325.18 C132.32 322.15, 113.87 315.86, 98.32 308.65 C82.77 301.44, 68.41 292.59, 56.02 281.93 C43.62 271.27, 32.35 258.11, 23.97 244.68 C15.59 231.25, 9.88 216.13, 5.75 201.36 C1.63 186.58, -1.45 171.23, -0.76 156.02 C-0.07 140.8, 4.23 124.57, 9.91 110.07 C15.59 95.56, 23.2 81.65, 33.31 68.97 C43.43 56.3, 56.97 43.67, 70.61 34.02 C84.25 24.36, 99.21 16.66, 115.15 11.03 C131.09 5.4, 148.8 1.55, 166.26 0.22 C183.71 -1.11, 201.87 -0.42, 219.91 3.04 C237.95 6.5, 264.9 17.16, 274.47 21 C284.04 24.83, 278.8 23.76, 277.3 26.04 M261.68 15.91 C277.58 19.44, 291.04 30, 304.04 40.09 C317.04 50.17, 330.46 63.13, 339.68 76.4 C348.89 89.67, 354.69 104.85, 359.35 119.71 C364.02 134.56, 367.44 150.56, 367.67 165.54 C367.89 180.52, 365.63 195.22, 360.72 209.57 C355.81 223.92, 348.01 238.35, 338.2 251.63 C328.4 264.9, 315.17 279.07, 301.9 289.21 C288.63 299.35, 274.01 306.56, 258.59 312.45 C243.17 318.34, 226.56 322.52, 209.36 324.56 C192.16 326.6, 172.76 326.59, 155.38 324.7 C138 322.81, 120.67 319.61, 105.1 313.24 C89.53 306.88, 74.7 296.91, 61.95 286.51 C49.2 276.12, 37.82 263.91, 28.6 250.87 C19.39 237.82, 11.26 222.7, 6.67 208.25 C2.08 193.81, 0.86 179.53, 1.07 164.17 C1.28 148.81, 2.93 131.23, 7.92 116.1 C12.91 100.97, 21.68 86.13, 31.02 73.39 C40.37 60.66, 51.35 49.45, 64 39.69 C76.65 29.92, 91.32 21.21, 106.94 14.82 C122.56 8.42, 140.41 3.71, 157.71 1.3 C175.01 -1.11, 193.62 -2.01, 210.75 0.37 C227.89 2.75, 252.15 12.72, 260.51 15.59 C268.86 18.47, 262.31 15.34, 260.89 17.63" stroke="#000000" stroke-width="1" fill="none"></path></g><g transform="translate(1430.4166666666665 186.66666666666652) rotate(0 33.75 47.5)" stroke="none"><path fill="#000000" d="M 1.63,0 Q 1.63,0 1.71,1.43 1.79,2.87 1.75,4.92 1.70,6.97 1.65,9.99 1.59,13.02 1.58,15.03 1.57,17.03 1.54,22.20 1.50,27.36 1.48,30.27 1.45,33.19 1.43,40.89 1.41,48.60 1.40,56.91 1.38,65.22 1.37,72.34 1.36,79.46 1.35,85.36 1.35,91.25 2.02,93.56 2.70,95.87 3.10,96.22 3.50,96.56 3.53,96.74 3.56,96.92 3.54,97.11 3.53,97.29 3.47,97.46 3.41,97.64 3.31,97.79 3.22,97.94 3.08,98.07 2.95,98.20 2.79,98.29 2.63,98.38 2.46,98.43 2.28,98.48 2.10,98.49 1.92,98.49 1.74,98.46 1.56,98.42 1.39,98.34 1.23,98.26 1.09,98.14 0.95,98.03 0.84,97.88 0.73,97.74 0.66,97.57 0.59,97.40 0.76,94.20 0.93,91.01 0.98,88.56 1.02,86.11 1.05,82.20 1.08,78.29 1.09,75.90 1.11,73.52 1.12,69.63 1.13,65.74 1.14,60.50 1.15,55.25 1.87,48.63 2.60,42.02 2.91,38.53 3.22,35.04 4.82,30.52 6.43,26.00 7.08,23.48 7.73,20.96 9.49,16.90 11.24,12.84 13.44,8.93 15.64,5.03 17.33,2.61 19.01,0.20 20.53,-1.01 22.05,-2.22 24.18,-3.39 26.30,-4.56 28.80,-5.10 31.30,-5.64 33.80,-5.85 36.31,-6.06 38.80,-6.14 41.30,-6.22 43.80,-6.25 46.30,-6.29 48.15,-6.35 50.00,-6.41 52.53,-4.85 55.06,-3.30 56.85,-1.09 58.65,1.10 60.15,4.27 61.64,7.44 62.98,10.93 64.31,14.43 64.90,18.94 65.50,23.46 64.27,27.72 63.04,31.99 59.55,36.76 56.06,41.53 51.62,45.04 47.19,48.54 43.10,50.76 39.02,52.97 35.11,54.63 31.20,56.29 28.78,57.01 26.35,57.73 25.01,57.64 23.68,57.55 23.23,58.18 22.77,58.81 22.59,58.82 22.40,58.83 22.22,58.80 22.04,58.76 21.88,58.68 21.71,58.61 21.57,58.49 21.42,58.38 21.31,58.23 21.20,58.08 21.13,57.92 21.05,57.75 21.02,57.57 20.99,57.38 21.00,57.20 21.02,57.02 21.07,56.84 21.13,56.67 21.23,56.51 21.32,56.36 21.45,56.23 21.59,56.10 21.74,56.01 21.90,55.91 22.08,55.86 22.26,55.81 22.76,54.74 23.26,53.67 24.50,53.40 25.74,53.14 26.97,53.02 28.19,52.89 30.16,52.93 32.12,52.97 33.80,52.98 35.48,52.99 38.74,55.40 42.00,57.82 44.71,61.07 47.42,64.32 51.39,69.28 55.35,74.23 59.18,79.23 63.01,84.22 64.68,87.15 66.35,90.08 67.54,92.18 68.73,94.28 68.82,94.49 68.90,94.71 68.91,94.94 68.92,95.17 68.85,95.40 68.79,95.62 68.65,95.81 68.52,96.00 68.33,96.13 68.15,96.27 67.92,96.34 67.70,96.41 67.47,96.41 67.24,96.40 67.02,96.33 66.80,96.25 66.62,96.11 66.44,95.96 66.31,95.77 66.19,95.58 66.13,95.35 66.07,95.13 66.08,94.90 66.10,94.66 66.19,94.45 66.28,94.24 66.43,94.06 66.59,93.89 66.79,93.77 66.99,93.66 67.21,93.61 67.44,93.56 67.67,93.59 67.90,93.62 68.11,93.72 68.32,93.82 68.48,93.98 68.65,94.15 68.75,94.35 68.86,94.56 68.89,94.79 68.93,95.02 68.89,95.25 68.84,95.47 68.73,95.68 68.62,95.88 68.45,96.04 68.28,96.19 68.07,96.29 67.86,96.38 67.62,96.40 67.39,96.42 67.17,96.37 66.94,96.32 66.75,96.19 66.55,96.07 66.40,95.89 66.26,95.71 66.26,95.71 66.26,95.71 65.03,93.64 63.80,91.56 62.19,88.83 60.58,86.11 56.71,81.19 52.83,76.28 48.81,71.43 44.78,66.59 42.23,63.70 39.68,60.81 37.32,58.92 34.96,57.02 33.57,57.05 32.17,57.08 30.28,57.16 28.39,57.25 26.50,57.20 24.61,57.16 23.69,57.99 22.77,58.81 22.59,58.82 22.40,58.83 22.22,58.80 22.04,58.76 21.88,58.68 21.71,58.61 21.57,58.49 21.42,58.38 21.31,58.23 21.20,58.08 21.13,57.92 21.05,57.75 21.02,57.57 20.99,57.38 21.00,57.20 21.02,57.02 21.07,56.84 21.13,56.67 21.23,56.51 21.32,56.36 21.45,56.23 21.59,56.10 21.74,56.01 21.90,55.91 22.08,55.86 22.26,55.81 21.83,56.19 21.40,56.57 23.50,55.89 25.61,55.20 27.89,54.53 30.17,53.86 33.97,52.25 37.76,50.64 41.66,48.55 45.56,46.45 49.75,43.19 53.94,39.93 57.22,35.55 60.50,31.17 61.66,27.44 62.83,23.71 62.30,19.55 61.77,15.39 60.46,12.00 59.15,8.61 57.80,5.73 56.46,2.84 54.96,0.96 53.45,-0.92 51.60,-2.23 49.75,-3.53 48.04,-3.56 46.34,-3.59 43.87,-3.55 41.40,-3.51 38.97,-3.41 36.54,-3.32 34.21,-3.11 31.88,-2.91 29.77,-2.48 27.66,-2.05 25.71,-0.93 23.75,0.18 22.44,0.96 21.13,1.74 19.53,4.03 17.94,6.32 15.80,10.11 13.66,13.89 11.98,17.76 10.29,21.63 9.61,24.26 8.93,26.89 7.40,31.09 5.87,35.29 5.56,38.80 5.26,42.31 4.55,48.78 3.84,55.25 3.85,60.50 3.85,65.74 3.86,69.63 3.87,73.52 3.87,75.91 3.88,78.29 3.89,82.22 3.90,86.14 3.90,88.61 3.90,91.08 3.70,93.82 3.50,96.56 3.53,96.74 3.56,96.92 3.54,97.11 3.53,97.29 3.47,97.46 3.41,97.64 3.31,97.79 3.22,97.94 3.08,98.07 2.95,98.20 2.79,98.29 2.63,98.38 2.46,98.43 2.28,98.48 2.10,98.49 1.92,98.49 1.74,98.46 1.56,98.42 1.39,98.34 1.23,98.26 1.09,98.14 0.95,98.03 0.84,97.88 0.73,97.74 0.66,97.57 0.59,97.40 0.38,97.05 0.17,96.71 -0.58,93.99 -1.35,91.28 -1.35,85.37 -1.36,79.46 -1.37,72.34 -1.38,65.22 -1.40,56.91 -1.41,48.60 -1.43,40.89 -1.45,33.19 -1.48,30.27 -1.50,27.36 -1.54,22.20 -1.57,17.03 -1.58,15.03 -1.59,13.02 -1.65,9.99 -1.70,6.97 -1.75,4.92 -1.79,2.87 -1.71,1.43 -1.63,0 -1.60,-0.19 -1.58,-0.39 -1.51,-0.57 -1.44,-0.75 -1.33,-0.92 -1.22,-1.08 -1.07,-1.21 -0.92,-1.34 -0.75,-1.43 -0.57,-1.52 -0.38,-1.57 -0.19,-1.62 0.00,-1.62 0.19,-1.62 0.38,-1.57 0.57,-1.52 0.75,-1.43 0.92,-1.34 1.07,-1.21 1.22,-1.08 1.33,-0.92 1.44,-0.75 1.51,-0.57 1.58,-0.39 1.60,-0.19 1.63,0.00 1.63,0.00 L 1.63,0 Z"></path></g><g stroke-linecap="round"><g transform="translate(1015.4166666666665 339.9999999999998) rotate(0 -121.23392670512203 186.20401705622672)"><path d="M-0.3 0 C-40.93 62.11, -202.54 309.89, -243 372.12 M1.74 -1.05 C-39.15 61.28, -203.23 311.37, -244.21 373.45" stroke="#000000" stroke-width="1" fill="none"></path></g><g transform="translate(1015.4166666666665 339.9999999999998) rotate(0 -121.23392670512203 186.20401705622672)"><path d="M-237.29 343.43 C-240.56 353.84, -241.01 367.2, -243.97 372.63 M-237.09 343.31 C-239.89 354.89, -242.99 366.64, -245.16 373.1" stroke="#000000" stroke-width="1" fill="none"></path></g><g transform="translate(1015.4166666666665 339.9999999999998) rotate(0 -121.23392670512203 186.20401705622672)"><path d="M-220.14 354.71 C-229.58 360.99, -236.23 370.27, -243.97 372.63 M-219.94 354.59 C-229.28 361.79, -238.99 369.2, -245.16 373.1" stroke="#000000" stroke-width="1" fill="none"></path></g></g><mask></mask><g stroke-linecap="round" transform="translate(509.1666666666665 705.4166666666665) rotate(0 183.75 163.75)"><path d="M161.24 1.91 C177.22 -2.71, 196.18 -1.13, 213.24 1.16 C230.3 3.45, 247.96 8.74, 263.61 15.67 C279.25 22.61, 294.53 32.29, 307.12 42.78 C319.72 53.27, 330.35 65.61, 339.17 78.62 C347.98 91.62, 355.19 106.23, 360.01 120.82 C364.82 135.41, 368.38 150.74, 368.06 166.17 C367.74 181.59, 363.39 198.59, 358.08 213.37 C352.77 228.15, 345.55 242.16, 336.19 254.84 C326.82 267.52, 315.1 279.54, 301.89 289.44 C288.68 299.34, 272.73 307.95, 256.93 314.25 C241.14 320.55, 224.11 325.46, 207.13 327.24 C190.15 329.02, 172.29 327.64, 155.07 324.92 C137.86 322.2, 119.41 317.5, 103.86 310.9 C88.3 304.3, 74.41 295.59, 61.75 285.31 C49.09 275.03, 37.01 262.12, 27.9 249.22 C18.8 236.32, 11.83 222.6, 7.11 207.92 C2.39 193.24, -0.55 176.75, -0.42 161.14 C-0.29 145.54, 2.67 129.05, 7.89 114.29 C13.11 99.52, 21.07 85.24, 30.92 72.54 C40.76 59.84, 53.8 47.8, 66.96 38.08 C80.13 28.37, 92.51 20.62, 109.91 14.25 C127.31 7.88, 159.33 1.69, 171.37 -0.13 C183.41 -1.95, 181.94 0.37, 182.16 3.33 M155.56 1.31 C171.31 -3.65, 191.48 -0.72, 208.57 1.63 C225.67 3.99, 242.48 9.15, 258.14 15.44 C273.79 21.74, 289.54 29.46, 302.49 39.4 C315.44 49.33, 326.52 62.36, 335.83 75.04 C345.14 87.72, 353.21 101.21, 358.33 115.5 C363.45 129.78, 366.22 145.42, 366.54 160.76 C366.87 176.09, 364.89 192.72, 360.27 207.5 C355.64 222.27, 348.08 236.48, 338.8 249.42 C329.52 262.36, 317.33 274.63, 304.58 285.13 C291.83 295.62, 278 305.42, 262.28 312.41 C246.57 319.41, 227.23 324.79, 210.27 327.08 C193.31 329.37, 177.4 328.57, 160.53 326.13 C143.65 323.68, 125.01 318.65, 109.02 312.4 C93.03 306.15, 77.53 298.54, 64.57 288.63 C51.6 278.71, 40.78 265.92, 31.21 252.91 C21.64 239.9, 12.31 224.97, 7.13 210.57 C1.95 196.17, 0.36 181.78, 0.11 166.5 C-0.14 151.23, 0.89 134.07, 5.61 118.92 C10.33 103.77, 19.2 88.48, 28.4 75.61 C37.61 62.73, 48.12 51.81, 60.83 41.67 C73.54 31.53, 88.88 21.23, 104.65 14.79 C120.41 8.36, 147.06 4.52, 155.44 3.05 C163.81 1.59, 154.43 3.51, 154.88 6.02" stroke="#000000" stroke-width="1" fill="none"></path></g><g stroke-linecap="round" transform="translate(1399.1666666666665 722.9166666666665) rotate(0 183.75 163.75)"><path d="M151.27 3.34 C166.7 -1.86, 185.87 -1.01, 203.02 0.52 C220.17 2.04, 238.24 6.44, 254.19 12.52 C270.13 18.6, 285.32 27.33, 298.69 37 C312.07 46.66, 324.7 57.9, 334.43 70.51 C344.15 83.11, 351.67 98.17, 357.03 112.64 C362.39 127.11, 365.88 142.25, 366.58 157.34 C367.27 172.42, 365.36 188.27, 361.22 203.15 C357.07 218.03, 350.43 233.37, 341.69 246.59 C332.95 259.81, 321.46 272.04, 308.78 282.48 C296.1 292.92, 280.92 302.12, 265.61 309.22 C250.31 316.33, 233.99 322.07, 216.95 325.13 C199.91 328.19, 180.46 329.24, 163.37 327.58 C146.27 325.91, 130.18 321.3, 114.38 315.16 C98.58 309.02, 82.18 300.36, 68.58 290.73 C54.98 281.09, 42.51 269.94, 32.78 257.34 C23.04 244.75, 15.7 229.85, 10.17 215.16 C4.63 200.47, 0.3 184.37, -0.44 169.21 C-1.18 154.05, 1.53 139.03, 5.72 124.19 C9.91 109.35, 15.92 93.65, 24.72 80.18 C33.52 66.72, 45.89 53.77, 58.52 43.37 C71.15 32.98, 83.84 24.87, 100.49 17.81 C117.15 10.74, 147.25 3.2, 158.43 1.01 C169.6 -1.18, 167.2 1.79, 167.57 4.67 M156.1 1.22 C171.82 -3.56, 191.59 -2.08, 208.53 0.34 C225.47 2.76, 242.2 9.19, 257.76 15.73 C273.33 22.28, 288.36 29.65, 301.94 39.6 C315.51 49.56, 329.68 62.4, 339.2 75.45 C348.73 88.5, 354.24 103.12, 359.08 117.91 C363.91 132.7, 367.96 149, 368.22 164.19 C368.47 179.39, 365.27 194.72, 360.59 209.09 C355.9 223.47, 349.27 237.43, 340.1 250.44 C330.93 263.45, 318.72 276.78, 305.57 287.16 C292.41 297.54, 277.05 306.4, 261.14 312.72 C245.24 319.03, 227.12 322.85, 210.14 325.07 C193.16 327.29, 176.06 328.03, 159.27 326.03 C142.48 324.03, 124.98 319.49, 109.38 313.08 C93.78 306.66, 79.16 297.68, 65.65 287.53 C52.14 277.38, 37.77 265.04, 28.32 252.18 C18.86 239.32, 13.62 225.15, 8.92 210.34 C4.22 195.53, 0.42 178.66, 0.12 163.32 C-0.18 147.98, 2.2 132.72, 7.12 118.31 C12.04 103.89, 20.25 89.94, 29.65 76.83 C39.06 63.72, 50.67 49.75, 63.56 39.63 C76.45 29.5, 91.55 22.31, 106.99 16.06 C122.43 9.81, 147.85 3.89, 156.19 2.11 C164.53 0.34, 156.42 2.7, 157.04 5.41" stroke="#000000" stroke-width="1" fill="none"></path></g><g stroke-linecap="round"><g transform="translate(1314.4345632729367 332.9626496104398) rotate(0 120.59773713834579 186.83050341812896)"><path d="M-0.79 0.81 C39.59 62.88, 201.45 310.25, 241.99 372.13 M0.99 0.2 C41.2 62.45, 200.67 311.3, 240.77 373.47" stroke="#000000" stroke-width="1" fill="none"></path></g><g transform="translate(1314.4345632729367 332.9626496104398) rotate(0 120.59773713834579 186.83050341812896)"><path d="M218.26 354.45 C222.74 360.27, 229.16 366.61, 238.82 372.72 M217.23 356.22 C222.78 359.67, 229.49 363.94, 241.13 374.22" stroke="#000000" stroke-width="1" fill="none"></path></g><g transform="translate(1314.4345632729367 332.9626496104398) rotate(0 120.59773713834579 186.83050341812896)"><path d="M235.52 343.35 C235.28 352.09, 236.99 361.45, 238.82 372.72 M234.49 345.12 C235.95 351.25, 238.5 358.2, 241.13 374.22" stroke="#000000" stroke-width="1" fill="none"></path></g></g><mask></mask><g transform="translate(1815.416666666667 130.16666666666663) rotate(0 140.5 46.5)"><text x="0" y="64" font-family="Helvetica, Segoe UI Emoji" font-size="77.86046511627906px" fill="#c92a2a" text-anchor="start" style="white-space: pre;" direction="ltr">Player 0</text></g><g transform="translate(1142.9166666666665 159.16666666666652) rotate(0 -13.75 57.5)" stroke="none"><path fill="#000000" d="M 0,2.51 Q 0,2.51 -1.43,2.50 -2.87,2.50 -4.20,2.51 -5.53,2.52 -6.81,2.54 -8.10,2.55 -9.36,2.56 -10.63,2.58 -11.88,2.59 -13.14,2.60 -14.39,2.61 -15.64,2.63 -16.89,2.63 -18.15,2.64 -19.88,3.98 -21.62,5.31 -22.83,6.48 -24.05,7.65 -25.58,8.37 -27.11,9.10 -28.73,11.02 -30.35,12.94 -31.87,15.83 -33.39,18.72 -35.66,21.60 -37.93,24.48 -39.51,27.64 -41.09,30.79 -41.78,32.81 -42.47,34.82 -42.68,36.28 -42.90,37.73 -42.33,38.67 -41.76,39.60 -40.34,40.68 -38.92,41.75 -38.00,43.17 -37.07,44.59 -35.42,44.82 -33.77,45.05 -31.68,46.03 -29.59,47.00 -27.34,48.16 -25.09,49.31 -22.85,49.79 -20.62,50.26 -19.20,51.27 -17.79,52.29 -16.10,53.35 -14.40,54.41 -12.23,55.63 -10.05,56.84 -7.69,58.09 -5.33,59.34 -3.52,60.66 -1.71,61.98 -0.20,63.23 1.30,64.49 2.52,64.85 3.74,65.21 5.30,67.13 6.86,69.05 8.77,71.17 10.68,73.29 12.22,74.94 13.76,76.59 14.63,78.15 15.49,79.70 16.46,80.86 17.42,82.02 18.05,83.52 18.67,85.02 18.82,87.95 18.97,90.89 18.99,93.51 19.01,96.13 18.98,98.73 18.96,101.33 17.42,104.17 15.89,107.01 14.48,108.87 13.07,110.74 11.65,111.75 10.22,112.77 9.08,113.79 7.94,114.82 6.28,115.47 4.62,116.12 2.83,115.63 1.03,115.13 -1.85,112.51 -4.74,109.89 -7.19,108.17 -9.64,106.45 -11.58,104.10 -13.51,101.75 -14.85,101.01 -16.18,100.28 -17.66,99.11 -19.15,97.93 -20.44,95.63 -21.74,93.34 -21.83,93.04 -21.92,92.74 -21.90,92.42 -21.89,92.11 -21.78,91.82 -21.67,91.52 -21.47,91.28 -21.27,91.04 -21.01,90.87 -20.74,90.71 -20.44,90.64 -20.13,90.56 -19.82,90.59 -19.51,90.62 -19.22,90.75 -18.93,90.87 -18.70,91.09 -18.47,91.30 -18.32,91.57 -18.17,91.85 -18.11,92.16 -18.06,92.46 -18.10,92.77 -18.15,93.08 -18.29,93.36 -18.43,93.64 -18.66,93.86 -18.88,94.08 -19.16,94.22 -19.45,94.35 -19.76,94.39 -20.07,94.43 -20.38,94.37 -20.68,94.31 -20.95,94.15 -21.23,93.99 -21.43,93.76 -21.64,93.52 -21.76,93.23 -21.88,92.94 -21.90,92.63 -21.92,92.32 -21.84,92.01 -21.77,91.71 -21.59,91.45 -21.42,91.19 -21.18,90.99 -20.93,90.80 -20.63,90.69 -20.34,90.59 -20.03,90.58 -19.71,90.58 -19.41,90.67 -19.12,90.77 -18.86,90.96 -18.61,91.14 -18.43,91.40 -18.25,91.65 -18.25,91.65 -18.25,91.65 -17.55,93.50 -16.85,95.35 -15.63,96.39 -14.41,97.44 -12.76,98.55 -11.11,99.67 -9.42,101.66 -7.72,103.66 -5.01,105.40 -2.30,107.14 0.18,109.29 2.67,111.43 4.23,111.76 5.79,112.09 7.17,111.03 8.56,109.97 9.69,109.47 10.83,108.97 12.07,107.26 13.31,105.55 14.62,103.35 15.93,101.16 15.84,98.69 15.76,96.22 15.62,93.67 15.49,91.12 15.27,88.65 15.06,86.19 14.84,85.13 14.61,84.07 13.57,82.59 12.54,81.11 12.07,79.85 11.61,78.58 10.03,76.97 8.44,75.36 6.38,73.19 4.32,71.02 3.31,69.62 2.29,68.22 0.84,67.52 -0.61,66.82 -2.01,65.58 -3.40,64.35 -5.06,63.19 -6.71,62.03 -9.13,60.83 -11.54,59.64 -13.83,58.47 -16.12,57.31 -18.79,55.35 -21.46,53.39 -24.02,52.96 -26.57,52.53 -28.84,51.55 -31.10,50.57 -32.87,49.91 -34.63,49.25 -36.03,48.86 -37.43,48.47 -38.73,47.55 -40.04,46.62 -40.56,45.48 -41.07,44.34 -43.03,42.78 -44.99,41.22 -45.61,39.33 -46.23,37.44 -45.87,35.65 -45.50,33.85 -44.82,31.59 -44.14,29.33 -42.51,25.81 -40.87,22.29 -38.95,19.61 -37.03,16.93 -35.46,13.49 -33.89,10.06 -30.76,7.00 -27.63,3.93 -26.61,2.79 -25.58,1.65 -24.74,0.73 -23.91,-0.18 -22.71,-1.20 -21.52,-2.22 -19.83,-2.43 -18.15,-2.64 -16.89,-2.63 -15.64,-2.63 -14.39,-2.61 -13.14,-2.60 -11.88,-2.59 -10.63,-2.58 -9.36,-2.56 -8.10,-2.55 -6.81,-2.54 -5.53,-2.52 -4.20,-2.51 -2.87,-2.50 -1.43,-2.50 0,-2.51 0.30,-2.47 0.60,-2.44 0.88,-2.33 1.16,-2.22 1.41,-2.05 1.66,-1.88 1.86,-1.65 2.06,-1.42 2.20,-1.15 2.35,-0.89 2.42,-0.59 2.49,-0.30 2.49,0.00 2.49,0.30 2.42,0.59 2.34,0.89 2.20,1.15 2.06,1.42 1.86,1.65 1.66,1.88 1.41,2.05 1.16,2.22 0.88,2.33 0.60,2.44 0.30,2.47 -0.00,2.51 -0.00,2.51 L 0,2.51 Z"></path></g><g transform="translate(1212.9166666666665 244.16666666666652) rotate(0 5 8.75)" stroke="none"><path fill="#000000" d="M -1.05,2.10 Q -1.05,2.10 -2.47,1.37 -3.89,0.64 -4.97,0.45 -6.06,0.25 -7.61,1.42 -9.16,2.58 -9.39,3.91 -9.62,5.24 -9.77,6.63 -9.92,8.03 -9.97,9.32 -10.01,10.61 -10.01,11.87 -10.02,13.14 -10.01,14.39 -10.00,15.64 -10.00,16.81 -10.01,17.98 -8.61,19.75 -7.20,21.53 -5.51,21.85 -3.82,22.17 -2.66,22.25 -1.49,22.33 0.21,23.25 1.92,24.17 3.40,24.46 4.88,24.75 6.76,24.31 8.63,23.87 10.37,23.63 12.11,23.38 13.91,22.08 15.72,20.79 17.22,18.92 18.73,17.05 19.29,15.62 19.84,14.19 20.14,12.30 20.43,10.40 20.60,8.17 20.77,5.93 20.12,4.52 19.48,3.12 18.56,1.89 17.65,0.65 14.68,-1.51 11.72,-3.68 10.36,-4.25 9.00,-4.81 7.47,-5.90 5.94,-6.99 4.87,-7.23 3.80,-7.47 2.83,-3.55 1.86,0.35 1.75,0.64 1.64,0.93 1.45,1.17 1.26,1.41 1.00,1.57 0.74,1.74 0.44,1.81 0.15,1.88 -0.15,1.86 -0.45,1.83 -0.74,1.71 -1.02,1.59 -1.25,1.38 -1.47,1.18 -1.62,0.91 -1.77,0.65 -1.83,0.34 -1.89,0.04 -1.85,-0.25 -1.81,-0.55 -1.67,-0.83 -1.53,-1.10 -1.31,-1.32 -1.10,-1.54 -0.82,-1.67 -0.55,-1.81 -0.24,-1.85 0.05,-1.89 0.35,-1.83 0.65,-1.77 0.92,-1.62 1.18,-1.47 1.39,-1.24 1.59,-1.01 1.71,-0.73 1.83,-0.45 1.86,-0.14 1.88,0.15 1.81,0.45 1.73,0.75 1.57,1.00 1.40,1.26 1.16,1.45 0.92,1.65 0.64,1.75 0.35,1.86 0.04,1.86 -0.25,1.87 -0.55,1.78 -0.84,1.69 -1.09,1.51 -1.34,1.33 -1.52,1.08 -1.69,0.83 -1.78,0.54 -1.87,0.25 -1.86,-0.05 -1.85,-0.36 -1.85,-0.35 -1.86,-0.35 -0.96,-5.28 -0.07,-10.20 2.48,-10.71 5.04,-11.23 6.57,-10.60 8.10,-9.97 9.32,-9.01 10.54,-8.05 12.25,-7.17 13.96,-6.28 15.77,-4.75 17.58,-3.23 18.94,-2.30 20.30,-1.38 21.39,0.27 22.48,1.93 23.17,3.96 23.85,5.98 23.77,8.42 23.69,10.86 23.39,13.21 23.09,15.56 22.26,17.34 21.43,19.13 19.67,21.45 17.90,23.76 15.40,25.55 12.90,27.34 11.27,27.59 9.64,27.84 6.97,28.56 4.30,29.29 1.07,28.33 -2.14,27.38 -3.44,27.27 -4.75,27.15 -6.24,26.81 -7.72,26.47 -9.27,25.62 -10.81,24.76 -12.02,23.33 -13.23,21.89 -14.10,20.09 -14.96,18.29 -14.96,16.94 -14.95,15.59 -14.92,14.31 -14.88,13.02 -14.82,11.69 -14.76,10.36 -14.66,8.93 -14.56,7.50 -14.37,5.87 -14.18,4.25 -13.60,1.85 -13.02,-0.54 -12.08,-1.56 -11.14,-2.58 -9.97,-3.45 -8.80,-4.32 -6.90,-4.34 -5.00,-4.35 -3.42,-3.93 -1.85,-3.51 -0.40,-2.81 1.05,-2.10 1.28,-1.94 1.52,-1.78 1.71,-1.58 1.90,-1.37 2.04,-1.12 2.18,-0.87 2.25,-0.60 2.32,-0.32 2.33,-0.04 2.33,0.23 2.27,0.51 2.21,0.79 2.08,1.04 1.96,1.29 1.77,1.51 1.59,1.72 1.36,1.89 1.13,2.05 0.87,2.16 0.60,2.27 0.32,2.31 0.04,2.35 -0.23,2.32 -0.51,2.29 -0.78,2.19 -1.05,2.10 -1.05,2.10 L -1.05,2.10 Z"></path></g><g transform="translate(667.9166666666665 794.1666666666665) rotate(0 -7.5 47.5)" stroke="none"><path fill="#000000" d="M -1.01,2.03 Q -1.01,2.03 -2.44,1.31 -3.87,0.58 -4.96,0.39 -6.05,0.20 -7.19,0.13 -8.34,0.06 -9.44,0.01 -10.54,-0.02 -12.76,0.95 -14.98,1.93 -16.59,3.15 -18.19,4.36 -18.85,5.52 -19.50,6.69 -20.87,7.62 -22.23,8.56 -23.15,9.87 -24.06,11.18 -25.32,13.20 -26.57,15.23 -27.84,17.44 -29.11,19.64 -28.88,20.81 -28.65,21.98 -27.39,23.55 -26.13,25.11 -24.89,25.90 -23.66,26.68 -21.53,28.74 -19.41,30.80 -16.58,32.26 -13.75,33.72 -11.04,35.14 -8.33,36.56 -5.75,37.89 -3.16,39.22 -1.26,40.57 0.63,41.92 2.19,43.21 3.75,44.49 5.16,45.74 6.56,46.99 8.57,49.01 10.58,51.03 12.27,54.21 13.95,57.40 14.65,59.50 15.36,61.60 16.34,64.61 17.33,67.62 17.79,69.68 18.25,71.75 18.43,74.13 18.61,76.51 18.68,80.39 18.75,84.28 18.77,86.64 18.80,89.00 18.88,90.76 18.96,92.51 18.20,94.35 17.43,96.19 16.17,97.19 14.90,98.19 12.71,98.55 10.51,98.91 8.18,98.96 5.85,99.01 3.22,98.26 0.59,97.51 -2.58,96.46 -5.76,95.42 -8.60,94.23 -11.43,93.03 -14.07,91.80 -16.71,90.56 -18.64,89.26 -20.56,87.97 -23.29,85.85 -26.02,83.73 -26.19,83.53 -26.36,83.34 -26.45,83.10 -26.55,82.86 -26.57,82.60 -26.59,82.34 -26.52,82.09 -26.45,81.84 -26.31,81.62 -26.17,81.41 -25.97,81.25 -25.76,81.09 -25.52,81.00 -25.27,80.92 -25.01,80.92 -24.75,80.91 -24.51,80.99 -24.26,81.07 -24.05,81.23 -23.85,81.38 -23.70,81.59 -23.55,81.81 -23.48,82.05 -23.41,82.30 -23.42,82.56 -23.43,82.82 -23.52,83.06 -23.61,83.30 -23.78,83.50 -23.95,83.70 -24.17,83.84 -24.39,83.97 -24.64,84.03 -24.89,84.09 -25.15,84.07 -25.41,84.04 -25.64,83.94 -25.88,83.83 -26.07,83.65 -26.26,83.48 -26.38,83.25 -26.51,83.02 -26.55,82.77 -26.59,82.51 -26.56,82.26 -26.52,82.00 -26.40,81.77 -26.28,81.54 -26.09,81.36 -25.91,81.18 -25.67,81.07 -25.44,80.96 -25.18,80.93 -24.93,80.90 -24.67,80.95 -24.42,81.00 -24.20,81.13 -23.97,81.26 -23.97,81.26 -23.97,81.26 -21.49,83.46 -19.01,85.66 -17.27,86.83 -15.53,87.99 -12.93,89.17 -10.32,90.34 -7.59,91.44 -4.85,92.54 -1.70,93.50 1.45,94.46 3.60,95.06 5.74,95.65 7.88,95.48 10.01,95.31 12.34,94.91 14.67,94.52 15.33,93.45 15.99,92.39 16.04,90.71 16.10,89.03 16.06,86.69 16.02,84.34 15.93,80.53 15.85,76.73 15.66,74.53 15.48,72.34 15.09,70.42 14.69,68.50 13.67,65.50 12.66,62.51 12.02,60.62 11.38,58.74 9.92,55.94 8.46,53.14 6.44,51.21 4.43,49.29 3.13,48.03 1.82,46.78 0.40,45.54 -1.02,44.31 -2.77,43.11 -4.51,41.92 -7.13,40.65 -9.75,39.38 -12.50,38.05 -15.26,36.72 -18.54,35.10 -21.82,33.49 -23.92,31.69 -26.01,29.89 -28.04,27.58 -30.07,25.26 -30.99,24.09 -31.91,22.93 -32.06,20.66 -32.22,18.39 -31.02,15.89 -29.82,13.39 -28.64,11.11 -27.45,8.82 -25.23,6.52 -23.01,4.21 -21.99,2.61 -20.97,1.01 -17.64,-1.07 -14.30,-3.17 -12.50,-3.99 -10.71,-4.80 -9.28,-4.74 -7.86,-4.67 -6.44,-4.49 -5.01,-4.30 -3.44,-3.88 -1.87,-3.46 -0.43,-2.74 1.01,-2.03 1.24,-1.88 1.47,-1.73 1.66,-1.53 1.84,-1.32 1.97,-1.08 2.11,-0.84 2.18,-0.58 2.25,-0.31 2.25,-0.04 2.26,0.22 2.20,0.49 2.14,0.76 2.01,1.00 1.89,1.25 1.71,1.46 1.54,1.67 1.31,1.83 1.09,1.99 0.84,2.09 0.58,2.19 0.31,2.23 0.04,2.27 -0.22,2.24 -0.50,2.21 -0.75,2.12 -1.01,2.03 -1.01,2.03 L -1.01,2.03 Z"></path></g><g transform="translate(702.9166666666665 891.6666666666665) rotate(0 28.75 -23.75)" stroke="none"><path fill="#000000" d="M 0.75,-1.51 Q 0.75,-1.51 2.21,-0.84 3.66,-0.17 4.81,-0.01 5.96,0.15 7.81,0.31 9.65,0.47 12.62,0.59 15.58,0.72 17.53,0.77 19.49,0.82 22.17,-0.47 24.86,-1.78 27.38,-4.37 29.91,-6.95 32.43,-10.87 34.95,-14.79 37.46,-20.02 39.97,-25.25 42.52,-29.70 45.07,-34.15 46.82,-38.80 48.58,-43.45 50.12,-46.29 51.66,-49.14 52.17,-49.61 52.67,-50.09 52.78,-50.25 52.89,-50.40 53.04,-50.53 53.18,-50.65 53.35,-50.74 53.52,-50.83 53.71,-50.87 53.89,-50.91 54.08,-50.91 54.28,-50.91 54.46,-50.86 54.65,-50.81 54.81,-50.72 54.98,-50.63 55.12,-50.50 55.26,-50.37 55.37,-50.22 55.48,-50.06 55.54,-49.88 55.61,-49.70 55.63,-49.51 55.65,-49.32 55.63,-49.13 55.60,-48.94 55.53,-48.76 55.46,-48.58 55.00,-47.31 54.54,-46.04 54.47,-44.33 54.41,-42.63 54.31,-38.29 54.21,-33.95 54.15,-28.50 54.09,-23.05 54.05,-20.02 54.00,-16.98 53.98,-13.53 53.95,-10.09 53.93,-7.19 53.91,-4.28 53.89,-2.45 53.87,-0.61 54.98,0.96 56.08,2.54 57.76,2.24 59.45,1.94 59.48,2.18 59.52,2.42 59.50,2.67 59.48,2.91 59.40,3.14 59.32,3.37 59.19,3.58 59.06,3.78 58.88,3.95 58.71,4.12 58.49,4.24 58.28,4.36 58.05,4.43 57.81,4.50 57.57,4.51 57.32,4.52 57.08,4.47 56.84,4.42 56.62,4.31 56.40,4.20 56.21,4.05 56.03,3.89 55.88,3.70 55.73,3.50 55.64,3.28 55.54,3.05 55.91,1.96 56.28,0.87 56.57,0.72 56.86,0.57 57.18,0.52 57.51,0.47 57.83,0.52 58.15,0.58 58.44,0.73 58.73,0.89 58.96,1.13 59.18,1.37 59.32,1.67 59.45,1.96 59.49,2.29 59.52,2.62 59.45,2.94 59.37,3.26 59.20,3.54 59.03,3.82 58.78,4.03 58.53,4.24 58.22,4.36 57.92,4.48 57.59,4.49 57.26,4.51 56.95,4.42 56.63,4.33 56.36,4.15 56.09,3.96 55.89,3.70 55.70,3.43 55.59,3.12 55.49,2.81 55.49,2.48 55.50,2.15 55.60,1.84 55.71,1.53 55.91,1.27 56.11,1.01 56.38,0.83 56.65,0.65 56.97,0.56 57.29,0.48 57.62,0.50 57.94,0.52 58.25,0.64 58.55,0.76 58.80,0.98 59.05,1.19 59.22,1.47 59.38,1.76 59.45,2.08 59.52,2.40 59.48,2.72 59.45,3.05 59.31,3.35 59.17,3.64 59.31,2.79 59.45,1.94 59.48,2.18 59.52,2.42 59.50,2.67 59.48,2.91 59.40,3.14 59.32,3.37 59.19,3.58 59.06,3.78 58.88,3.95 58.71,4.12 58.49,4.24 58.28,4.36 58.05,4.43 57.81,4.50 57.57,4.51 57.32,4.52 57.08,4.47 56.84,4.42 56.62,4.31 56.40,4.20 56.21,4.05 56.03,3.89 55.88,3.70 55.73,3.50 55.64,3.28 55.54,3.05 54.08,2.69 52.62,2.32 51.87,1.08 51.12,-0.15 51.10,-2.22 51.08,-4.29 51.07,-7.19 51.05,-10.09 51.03,-13.54 51.00,-16.99 50.97,-20.02 50.95,-23.06 50.91,-28.52 50.88,-33.98 50.85,-38.38 50.82,-42.79 50.92,-44.77 51.02,-46.74 51.85,-48.42 52.67,-50.09 52.78,-50.25 52.89,-50.40 53.04,-50.53 53.18,-50.65 53.35,-50.74 53.52,-50.83 53.71,-50.87 53.89,-50.91 54.08,-50.91 54.28,-50.91 54.46,-50.86 54.65,-50.81 54.81,-50.72 54.98,-50.63 55.12,-50.50 55.26,-50.37 55.37,-50.22 55.48,-50.06 55.54,-49.88 55.61,-49.70 55.63,-49.51 55.65,-49.32 55.63,-49.13 55.60,-48.94 55.53,-48.76 55.46,-48.58 54.71,-48.17 53.95,-47.76 52.54,-45.12 51.13,-42.49 49.30,-37.64 47.48,-32.79 45.00,-28.41 42.51,-24.03 39.95,-18.63 37.38,-13.23 34.72,-9.05 32.05,-4.87 29.15,-1.93 26.25,1.00 22.92,2.55 19.60,4.10 17.56,4.10 15.52,4.11 12.47,4.12 9.42,4.14 7.26,4.04 5.10,3.94 3.59,3.49 2.08,3.05 0.66,2.28 -0.75,1.51 -0.92,1.40 -1.09,1.28 -1.23,1.13 -1.37,0.98 -1.47,0.80 -1.56,0.63 -1.62,0.43 -1.67,0.23 -1.67,0.03 -1.68,-0.17 -1.63,-0.36 -1.59,-0.56 -1.50,-0.75 -1.41,-0.93 -1.27,-1.08 -1.14,-1.24 -0.98,-1.36 -0.81,-1.48 -0.62,-1.55 -0.43,-1.63 -0.23,-1.66 -0.03,-1.69 0.16,-1.67 0.37,-1.64 0.56,-1.58 0.75,-1.51 0.75,-1.51 L 0.75,-1.51 Z"></path></g><g transform="translate(1582.9166666666665 809.1666666666665) rotate(0 -32.5 43.75)" stroke="none"><path fill="#000000" d="M -0.91,1.83 Q -0.91,1.83 -2.35,1.13 -3.79,0.42 -5.08,0.12 -6.38,-0.18 -7.37,-1.24 -8.37,-2.30 -9.78,-2.31 -11.18,-2.31 -13.34,-3.30 -15.49,-4.29 -16.85,-4.56 -18.20,-4.83 -20.12,-5.06 -22.04,-5.29 -25.04,-5.44 -28.03,-5.59 -30.00,-5.66 -31.97,-5.73 -33.21,-5.07 -34.44,-4.40 -35.83,-4.08 -37.22,-3.76 -39.08,-0.71 -40.93,2.33 -42.39,4.72 -43.86,7.12 -44.43,10.08 -45.00,13.03 -45.29,15.75 -45.58,18.46 -45.02,20.87 -44.46,23.27 -43.54,25.73 -42.61,28.19 -40.16,31.26 -37.71,34.33 -36.02,35.59 -34.34,36.86 -32.80,38.18 -31.26,39.49 -29.29,40.71 -27.32,41.92 -25.04,43.18 -22.76,44.43 -19.59,46.43 -16.42,48.43 -12.92,50.72 -9.42,53.00 -7.18,54.72 -4.94,56.44 -3.23,57.94 -1.52,59.45 -0.65,61.74 0.21,64.04 0.54,66.48 0.86,68.91 1.07,70.66 1.28,72.41 0.56,74.83 -0.15,77.25 -1.98,79.79 -3.82,82.34 -5.32,84.10 -6.82,85.86 -8.27,86.81 -9.72,87.76 -10.85,89.32 -11.99,90.89 -14.27,91.82 -16.55,92.76 -18.80,93.76 -21.05,94.76 -24.37,95.24 -27.69,95.72 -32.08,95.18 -36.47,94.63 -40.58,92.92 -44.69,91.20 -49.27,89.04 -53.84,86.88 -57.22,85.24 -60.59,83.61 -63.08,82.40 -65.57,81.19 -65.75,81.07 -65.92,80.94 -66.05,80.77 -66.18,80.60 -66.24,80.39 -66.31,80.19 -66.31,79.97 -66.30,79.76 -66.23,79.56 -66.16,79.35 -66.02,79.18 -65.89,79.02 -65.71,78.90 -65.53,78.78 -65.32,78.73 -65.12,78.67 -64.90,78.69 -64.69,78.70 -64.49,78.79 -64.29,78.87 -64.13,79.01 -63.97,79.15 -63.86,79.34 -63.75,79.52 -63.71,79.74 -63.67,79.95 -63.69,80.16 -63.72,80.37 -63.81,80.57 -63.91,80.76 -64.06,80.91 -64.21,81.07 -64.40,81.16 -64.59,81.26 -64.81,81.29 -65.02,81.32 -65.23,81.28 -65.44,81.25 -65.63,81.14 -65.82,81.04 -65.96,80.88 -66.11,80.72 -66.19,80.52 -66.28,80.33 -66.30,80.11 -66.32,79.90 -66.27,79.69 -66.22,79.48 -66.11,79.30 -65.99,79.12 -65.83,78.98 -65.66,78.85 -65.46,78.77 -65.26,78.69 -65.04,78.69 -64.83,78.68 -64.62,78.74 -64.42,78.80 -64.42,78.80 -64.42,78.80 -61.92,80.00 -59.43,81.20 -56.06,82.83 -52.70,84.45 -48.17,86.58 -43.64,88.71 -39.87,90.32 -36.10,91.93 -32.08,92.45 -28.06,92.97 -25.12,92.57 -22.19,92.17 -19.88,91.10 -17.57,90.03 -15.88,89.48 -14.19,88.94 -12.76,87.00 -11.33,85.07 -10.10,84.56 -8.88,84.04 -7.48,82.36 -6.09,80.68 -4.48,78.52 -2.88,76.36 -2.27,74.46 -1.66,72.56 -1.70,70.90 -1.75,69.25 -2.02,67.07 -2.29,64.89 -2.83,63.10 -3.36,61.30 -4.96,59.93 -6.56,58.56 -8.73,56.91 -10.89,55.26 -14.38,52.99 -17.86,50.73 -20.97,48.78 -24.08,46.84 -26.43,45.57 -28.79,44.30 -30.96,42.97 -33.13,41.64 -34.57,40.35 -36.01,39.05 -37.95,37.57 -39.88,36.08 -42.58,32.66 -45.27,29.25 -46.30,26.59 -47.33,23.94 -47.99,21.09 -48.64,18.23 -48.41,15.33 -48.18,12.43 -47.54,8.94 -46.89,5.46 -45.48,2.84 -44.07,0.22 -42.45,-2.36 -40.84,-4.94 -39.76,-6.03 -38.67,-7.12 -37.28,-7.40 -35.90,-7.68 -33.98,-8.43 -32.07,-9.18 -30.01,-9.20 -27.96,-9.22 -24.87,-9.25 -21.77,-9.28 -19.52,-9.23 -17.26,-9.18 -15.54,-8.78 -13.83,-8.39 -12.15,-7.81 -10.48,-7.23 -9.11,-6.97 -7.74,-6.72 -6.21,-5.31 -4.68,-3.91 -3.32,-3.60 -1.95,-3.30 -0.52,-2.56 0.91,-1.83 1.12,-1.69 1.32,-1.56 1.49,-1.37 1.66,-1.19 1.78,-0.98 1.90,-0.76 1.96,-0.52 2.02,-0.28 2.03,-0.03 2.03,0.20 1.98,0.44 1.93,0.68 1.82,0.91 1.70,1.13 1.54,1.31 1.38,1.50 1.18,1.65 0.98,1.79 0.75,1.88 0.52,1.98 0.28,2.01 0.04,2.04 -0.20,2.02 -0.45,1.99 -0.68,1.91 -0.91,1.83 -0.91,1.83 L -0.91,1.83 Z"></path></g><g transform="translate(1605.4166666666665 884.1666666666665) rotate(0 25 2.5)" stroke="none"><path fill="#000000" d="M -1.62,0.81 Q -1.62,0.81 -2.38,-0.60 -3.13,-2.01 -4.08,-3.20 -5.03,-4.38 -5.67,-5.91 -6.30,-7.45 -6.40,-9.89 -6.50,-12.33 -4.94,-14.34 -3.37,-16.34 -2.96,-17.55 -2.55,-18.77 0.13,-21.05 2.82,-23.34 5.30,-25.58 7.78,-27.81 10.52,-28.90 13.26,-29.99 15.13,-30.47 17.01,-30.96 18.56,-31.22 20.11,-31.49 21.82,-31.51 23.54,-31.53 24.65,-30.69 25.76,-29.85 26.73,-28.89 27.69,-27.92 28.37,-26.43 29.04,-24.94 29.20,-22.74 29.36,-20.53 29.33,-17.49 29.30,-14.44 29.25,-11.72 29.20,-9.00 28.42,-5.52 27.63,-2.04 26.56,1.56 25.48,5.16 23.53,8.95 21.58,12.74 19.30,16.49 17.03,20.24 15.31,22.58 13.60,24.91 12.90,26.61 12.19,28.30 10.18,29.34 8.16,30.37 6.73,30.76 5.31,31.14 5.11,31.19 4.91,31.25 4.70,31.26 4.49,31.26 4.29,31.22 4.09,31.17 3.90,31.08 3.71,30.99 3.55,30.86 3.39,30.73 3.27,30.56 3.15,30.39 3.07,30.20 2.99,30.01 2.95,29.80 2.92,29.59 2.94,29.39 2.96,29.18 3.03,28.98 3.10,28.79 3.21,28.61 3.32,28.44 3.47,28.29 3.63,28.15 3.81,28.05 3.99,27.95 5.07,28.38 6.14,28.81 8.19,29.50 10.24,30.19 12.55,31.16 14.87,32.13 18.45,32.50 22.02,32.86 24.33,33.06 26.63,33.25 30.33,32.63 34.03,32.02 37.17,31.75 40.31,31.49 42.36,31.36 44.41,31.23 46.01,31.10 47.61,30.96 49.01,30.85 50.41,30.74 51.87,29.73 53.33,28.71 53.58,28.48 53.83,28.25 54.14,28.11 54.45,27.97 54.78,27.93 55.12,27.90 55.45,27.97 55.78,28.05 56.07,28.23 56.36,28.40 56.58,28.66 56.80,28.92 56.92,29.24 57.05,29.56 57.06,29.90 57.08,30.24 56.99,30.56 56.89,30.89 56.70,31.17 56.51,31.45 56.24,31.65 55.97,31.86 55.64,31.96 55.32,32.07 54.98,32.07 54.64,32.06 54.32,31.95 54.00,31.84 53.73,31.64 53.46,31.43 53.27,31.15 53.08,30.86 53.00,30.54 52.91,30.21 52.93,29.87 52.95,29.53 53.08,29.22 53.20,28.90 53.42,28.64 53.65,28.39 53.94,28.21 54.23,28.04 54.56,27.97 54.90,27.90 55.23,27.94 55.57,27.98 55.88,28.12 56.18,28.27 56.43,28.50 56.67,28.74 56.83,29.04 56.99,29.34 57.04,29.67 57.09,30.01 57.04,30.34 56.98,30.68 56.82,30.98 56.66,31.28 56.66,31.28 56.66,31.28 55.16,32.72 53.66,34.16 52.06,34.24 50.47,34.31 49.09,34.24 47.71,34.18 46.14,34.14 44.58,34.10 42.57,34.21 40.57,34.32 37.54,34.61 34.52,34.90 30.49,35.59 26.45,36.28 24.09,36.17 21.72,36.05 17.69,35.68 13.66,35.32 11.60,34.57 9.55,33.83 7.43,32.48 5.31,31.14 5.11,31.19 4.91,31.25 4.70,31.26 4.49,31.26 4.29,31.22 4.09,31.18 3.90,31.08 3.71,30.99 3.55,30.86 3.39,30.73 3.27,30.56 3.15,30.39 3.07,30.20 2.99,30.01 2.96,29.80 2.92,29.59 2.94,29.39 2.96,29.18 3.03,28.98 3.10,28.79 3.21,28.61 3.32,28.44 3.47,28.29 3.63,28.15 3.81,28.05 3.99,27.95 5.48,27.72 6.97,27.49 8.43,27.08 9.89,26.67 10.61,24.98 11.32,23.28 12.94,21.02 14.56,18.76 16.75,15.08 18.94,11.40 20.73,7.85 22.52,4.30 23.48,0.79 24.44,-2.72 25.07,-5.85 25.70,-8.98 25.59,-11.66 25.48,-14.34 25.30,-17.25 25.12,-20.15 24.79,-22.60 24.46,-25.06 23.50,-26.11 22.54,-27.17 21.53,-27.57 20.53,-27.97 19.13,-27.89 17.74,-27.81 16.06,-27.46 14.39,-27.11 12.16,-26.25 9.94,-25.38 7.51,-23.02 5.07,-20.66 2.96,-18.90 0.85,-17.13 0.10,-15.58 -0.63,-14.03 -1.79,-12.91 -2.94,-11.79 -2.44,-9.24 -1.93,-6.68 -0.83,-5.20 0.25,-3.73 0.94,-2.27 1.62,-0.81 1.70,-0.60 1.77,-0.40 1.79,-0.18 1.81,0.03 1.78,0.25 1.75,0.47 1.67,0.67 1.59,0.87 1.46,1.05 1.33,1.23 1.17,1.37 1.00,1.51 0.80,1.61 0.61,1.71 0.39,1.76 0.18,1.81 -0.03,1.80 -0.25,1.80 -0.46,1.74 -0.67,1.68 -0.87,1.58 -1.06,1.47 -1.22,1.32 -1.38,1.17 -1.50,0.99 -1.62,0.81 -1.62,0.81 L -1.62,0.81 Z"></path></g><g transform="translate(237.08333333333303 1126.6666666666665) rotate(0 0.00005000000000165983 0.00004999999998744897)" stroke="none"><path fill="#000000" d="M 1.57,-1.57 Q 1.57,-1.57 1.77,-1.27 1.98,-0.98 2.09,-0.64 2.20,-0.29 2.19,0.05 2.18,0.41 2.05,0.75 1.93,1.09 1.70,1.37 1.48,1.65 1.18,1.84 0.87,2.04 0.52,2.12 0.18,2.21 -0.17,2.18 -0.53,2.15 -0.86,2.01 -1.19,1.87 -1.46,1.63 -1.73,1.39 -1.90,1.07 -2.08,0.76 -2.15,0.41 -2.21,0.05 -2.17,-0.29 -2.12,-0.65 -1.96,-0.97 -1.80,-1.29 -1.54,-1.54 -1.29,-1.80 -0.97,-1.96 -0.65,-2.12 -0.29,-2.17 0.06,-2.21 0.41,-2.15 0.76,-2.08 1.07,-1.90 1.39,-1.73 1.63,-1.46 1.87,-1.19 2.01,-0.86 2.15,-0.53 2.18,-0.17 2.21,0.18 2.12,0.52 2.03,0.87 1.84,1.18 1.65,1.48 1.37,1.70 1.09,1.93 0.75,2.05 0.41,2.18 0.05,2.19 -0.30,2.20 -0.64,2.09 -0.98,1.98 -1.27,1.77 -1.57,1.56 -1.57,1.57 -1.57,1.57 -1.73,1.35 -1.90,1.14 -2.01,0.90 -2.12,0.66 -2.16,0.39 -2.21,0.13 -2.20,-0.13 -2.18,-0.40 -2.10,-0.65 -2.02,-0.91 -1.88,-1.14 -1.74,-1.36 -1.55,-1.55 -1.36,-1.74 -1.14,-1.88 -0.91,-2.02 -0.65,-2.10 -0.40,-2.18 -0.13,-2.20 0.13,-2.21 0.39,-2.16 0.66,-2.12 0.90,-2.01 1.14,-1.90 1.35,-1.73 1.57,-1.57 1.57,-1.57 L 1.57,-1.57 Z"></path></g><g transform="translate(790.4166666666665 1083.3333333333333) rotate(0 0.00004999999998744897 0.00004999999998744897)" stroke="none"><path fill="#000000" d="M 1.57,-1.57 Q 1.57,-1.57 1.77,-1.27 1.98,-0.98 2.09,-0.64 2.20,-0.29 2.19,0.05 2.18,0.41 2.05,0.75 1.93,1.09 1.70,1.37 1.48,1.65 1.18,1.84 0.87,2.04 0.52,2.12 0.18,2.21 -0.17,2.18 -0.53,2.15 -0.86,2.01 -1.19,1.87 -1.46,1.63 -1.73,1.39 -1.90,1.07 -2.08,0.76 -2.15,0.41 -2.21,0.05 -2.17,-0.29 -2.12,-0.65 -1.96,-0.97 -1.80,-1.29 -1.54,-1.54 -1.29,-1.80 -0.97,-1.96 -0.65,-2.12 -0.29,-2.17 0.06,-2.21 0.41,-2.15 0.76,-2.08 1.07,-1.90 1.39,-1.73 1.63,-1.46 1.87,-1.19 2.01,-0.86 2.15,-0.53 2.18,-0.17 2.21,0.18 2.12,0.52 2.03,0.87 1.84,1.18 1.65,1.48 1.37,1.70 1.09,1.93 0.75,2.05 0.41,2.18 0.05,2.19 -0.30,2.20 -0.64,2.09 -0.98,1.98 -1.27,1.77 -1.57,1.56 -1.57,1.57 -1.57,1.57 -1.73,1.35 -1.90,1.14 -2.01,0.90 -2.12,0.66 -2.16,0.39 -2.21,0.13 -2.20,-0.13 -2.18,-0.40 -2.10,-0.65 -2.02,-0.91 -1.88,-1.14 -1.74,-1.36 -1.55,-1.55 -1.36,-1.74 -1.14,-1.88 -0.91,-2.02 -0.65,-2.10 -0.40,-2.18 -0.13,-2.20 0.13,-2.21 0.39,-2.16 0.66,-2.12 0.90,-2.01 1.14,-1.90 1.35,-1.73 1.57,-1.57 1.57,-1.57 L 1.57,-1.57 Z"></path></g><g transform="translate(440.4166666666665 896.6666666666665) rotate(0 0.00005000000000165983 0.00004999999998744897)" stroke="none"><path fill="#000000" d="M 1.57,-1.57 Q 1.57,-1.57 1.77,-1.27 1.98,-0.98 2.09,-0.64 2.20,-0.29 2.19,0.05 2.18,0.41 2.05,0.75 1.93,1.09 1.70,1.37 1.48,1.65 1.18,1.84 0.87,2.04 0.52,2.12 0.18,2.21 -0.17,2.18 -0.53,2.15 -0.86,2.01 -1.19,1.87 -1.46,1.63 -1.73,1.39 -1.90,1.07 -2.08,0.76 -2.15,0.41 -2.21,0.05 -2.17,-0.29 -2.12,-0.65 -1.96,-0.97 -1.80,-1.29 -1.54,-1.54 -1.29,-1.80 -0.97,-1.96 -0.65,-2.12 -0.29,-2.17 0.06,-2.21 0.41,-2.15 0.76,-2.08 1.07,-1.90 1.39,-1.73 1.63,-1.46 1.87,-1.19 2.01,-0.86 2.15,-0.53 2.18,-0.17 2.21,0.18 2.12,0.52 2.03,0.87 1.84,1.18 1.65,1.48 1.37,1.70 1.09,1.93 0.75,2.05 0.41,2.18 0.05,2.19 -0.30,2.20 -0.64,2.09 -0.98,1.98 -1.27,1.77 -1.57,1.56 -1.57,1.57 -1.57,1.57 -1.73,1.35 -1.90,1.14 -2.01,0.90 -2.12,0.66 -2.16,0.39 -2.21,0.13 -2.20,-0.13 -2.18,-0.40 -2.10,-0.65 -2.02,-0.91 -1.88,-1.14 -1.74,-1.36 -1.55,-1.55 -1.36,-1.74 -1.14,-1.88 -0.91,-2.02 -0.65,-2.10 -0.40,-2.18 -0.13,-2.20 0.13,-2.21 0.39,-2.16 0.66,-2.12 0.90,-2.01 1.14,-1.90 1.35,-1.73 1.57,-1.57 1.57,-1.57 L 1.57,-1.57 Z"></path></g><g transform="translate(2337.0833333333326 1083.3333333333333) rotate(0 0.00005000000010113581 0.00004999999998744897)" stroke="none"><path fill="#000000" d="M 1.57,-1.57 Q 1.57,-1.57 1.77,-1.27 1.98,-0.98 2.09,-0.64 2.20,-0.29 2.19,0.05 2.18,0.41 2.05,0.75 1.93,1.09 1.70,1.37 1.48,1.65 1.18,1.84 0.87,2.04 0.52,2.12 0.18,2.21 -0.17,2.18 -0.53,2.15 -0.86,2.01 -1.19,1.87 -1.46,1.63 -1.73,1.39 -1.90,1.07 -2.08,0.76 -2.15,0.41 -2.21,0.05 -2.17,-0.29 -2.12,-0.65 -1.96,-0.97 -1.80,-1.29 -1.54,-1.54 -1.29,-1.80 -0.97,-1.96 -0.65,-2.12 -0.29,-2.17 0.06,-2.21 0.41,-2.15 0.76,-2.08 1.07,-1.90 1.39,-1.73 1.63,-1.46 1.87,-1.19 2.01,-0.86 2.15,-0.53 2.18,-0.17 2.21,0.18 2.12,0.52 2.03,0.87 1.84,1.18 1.65,1.48 1.37,1.70 1.09,1.93 0.75,2.05 0.41,2.18 0.05,2.19 -0.30,2.20 -0.64,2.09 -0.98,1.98 -1.27,1.77 -1.57,1.56 -1.57,1.57 -1.57,1.57 -1.73,1.35 -1.90,1.14 -2.01,0.90 -2.12,0.66 -2.16,0.39 -2.21,0.13 -2.20,-0.13 -2.18,-0.40 -2.10,-0.65 -2.02,-0.91 -1.88,-1.14 -1.74,-1.36 -1.55,-1.55 -1.36,-1.74 -1.14,-1.88 -0.91,-2.02 -0.65,-2.10 -0.40,-2.18 -0.13,-2.20 0.13,-2.21 0.39,-2.16 0.66,-2.12 0.90,-2.01 1.14,-1.90 1.35,-1.73 1.57,-1.57 1.57,-1.57 L 1.57,-1.57 Z"></path></g><g transform="translate(213.75 10) rotate(0 0.00005000000000165983 0.00005000000000165983)" stroke="none"><path fill="#000000" d="M 1.57,-1.57 Q 1.57,-1.57 1.77,-1.27 1.98,-0.98 2.09,-0.64 2.20,-0.29 2.19,0.05 2.18,0.41 2.05,0.75 1.93,1.09 1.70,1.37 1.48,1.65 1.18,1.84 0.87,2.04 0.52,2.12 0.18,2.21 -0.17,2.18 -0.53,2.15 -0.86,2.01 -1.19,1.87 -1.46,1.63 -1.73,1.39 -1.90,1.07 -2.08,0.76 -2.15,0.41 -2.21,0.05 -2.17,-0.29 -2.12,-0.65 -1.96,-0.97 -1.80,-1.29 -1.54,-1.54 -1.29,-1.80 -0.97,-1.96 -0.65,-2.12 -0.29,-2.17 0.06,-2.21 0.41,-2.15 0.76,-2.08 1.07,-1.90 1.39,-1.73 1.63,-1.46 1.87,-1.19 2.01,-0.86 2.15,-0.53 2.18,-0.17 2.21,0.18 2.12,0.52 2.03,0.87 1.84,1.18 1.65,1.48 1.37,1.70 1.09,1.93 0.75,2.05 0.41,2.18 0.05,2.19 -0.30,2.20 -0.64,2.09 -0.98,1.98 -1.27,1.77 -1.57,1.56 -1.57,1.57 -1.57,1.57 -1.73,1.35 -1.90,1.14 -2.01,0.90 -2.12,0.66 -2.16,0.39 -2.21,0.13 -2.20,-0.13 -2.18,-0.40 -2.10,-0.65 -2.02,-0.91 -1.88,-1.14 -1.74,-1.36 -1.55,-1.55 -1.36,-1.74 -1.14,-1.88 -0.91,-2.02 -0.65,-2.10 -0.40,-2.18 -0.13,-2.20 0.13,-2.21 0.39,-2.16 0.66,-2.12 0.90,-2.01 1.14,-1.90 1.35,-1.73 1.57,-1.57 1.57,-1.57 L 1.57,-1.57 Z"></path></g><g transform="translate(2617.0833333333326 1183.333333333333) rotate(0 0.00005000000010113581 0.00004999999998744897)" stroke="none"><path fill="#000000" d="M 1.57,-1.57 Q 1.57,-1.57 1.77,-1.27 1.98,-0.98 2.09,-0.64 2.20,-0.29 2.19,0.05 2.18,0.41 2.05,0.75 1.93,1.09 1.70,1.37 1.48,1.65 1.18,1.84 0.87,2.04 0.52,2.12 0.18,2.21 -0.17,2.18 -0.53,2.15 -0.86,2.01 -1.19,1.87 -1.46,1.63 -1.73,1.39 -1.90,1.07 -2.08,0.76 -2.15,0.41 -2.21,0.05 -2.17,-0.29 -2.12,-0.65 -1.96,-0.97 -1.80,-1.29 -1.54,-1.54 -1.29,-1.80 -0.97,-1.96 -0.65,-2.12 -0.29,-2.17 0.06,-2.21 0.41,-2.15 0.76,-2.08 1.07,-1.90 1.39,-1.73 1.63,-1.46 1.87,-1.19 2.01,-0.86 2.15,-0.53 2.18,-0.17 2.21,0.18 2.12,0.52 2.03,0.87 1.84,1.18 1.65,1.48 1.37,1.70 1.09,1.93 0.75,2.05 0.41,2.18 0.05,2.19 -0.30,2.20 -0.64,2.09 -0.98,1.98 -1.27,1.77 -1.57,1.56 -1.57,1.57 -1.57,1.57 -1.73,1.35 -1.90,1.14 -2.01,0.90 -2.12,0.66 -2.16,0.39 -2.21,0.13 -2.20,-0.13 -2.18,-0.40 -2.10,-0.65 -2.02,-0.91 -1.88,-1.14 -1.74,-1.36 -1.55,-1.55 -1.36,-1.74 -1.14,-1.88 -0.91,-2.02 -0.65,-2.10 -0.40,-2.18 -0.13,-2.20 0.13,-2.21 0.39,-2.16 0.66,-2.12 0.90,-2.01 1.14,-1.90 1.35,-1.73 1.57,-1.57 1.57,-1.57 L 1.57,-1.57 Z"></path></g><g transform="translate(1053.7499999999995 1539.9999999999998) rotate(0 0.00004999999998744897 0.00004999999998744897)" stroke="none"><path fill="#000000" d="M 1.57,-1.57 Q 1.57,-1.57 1.77,-1.27 1.98,-0.98 2.09,-0.64 2.20,-0.29 2.19,0.05 2.18,0.41 2.05,0.75 1.93,1.09 1.70,1.37 1.48,1.65 1.18,1.84 0.87,2.04 0.52,2.12 0.18,2.21 -0.17,2.18 -0.53,2.15 -0.86,2.01 -1.19,1.87 -1.46,1.63 -1.73,1.39 -1.90,1.07 -2.08,0.76 -2.15,0.41 -2.21,0.05 -2.17,-0.29 -2.12,-0.65 -1.96,-0.97 -1.80,-1.29 -1.54,-1.54 -1.29,-1.80 -0.97,-1.96 -0.65,-2.12 -0.29,-2.17 0.06,-2.21 0.41,-2.15 0.76,-2.08 1.07,-1.90 1.39,-1.73 1.63,-1.46 1.87,-1.19 2.01,-0.86 2.15,-0.53 2.18,-0.17 2.21,0.18 2.12,0.52 2.03,0.87 1.84,1.18 1.65,1.48 1.37,1.70 1.09,1.93 0.75,2.05 0.41,2.18 0.05,2.19 -0.30,2.20 -0.64,2.09 -0.98,1.98 -1.27,1.77 -1.57,1.56 -1.57,1.57 -1.57,1.57 -1.73,1.35 -1.90,1.14 -2.01,0.90 -2.12,0.66 -2.16,0.39 -2.21,0.13 -2.20,-0.13 -2.18,-0.40 -2.10,-0.65 -2.02,-0.91 -1.88,-1.14 -1.74,-1.36 -1.55,-1.55 -1.36,-1.74 -1.14,-1.88 -0.91,-2.02 -0.65,-2.10 -0.40,-2.18 -0.13,-2.20 0.13,-2.21 0.39,-2.16 0.66,-2.12 0.90,-2.01 1.14,-1.90 1.35,-1.73 1.57,-1.57 1.57,-1.57 L 1.57,-1.57 Z"></path></g><g stroke-linecap="round"><g transform="translate(789.1760378516703 1023.7959829437732) rotate(0 121.16850676511416 186.00005882482043)"><path d="M0.86 -0.19 C41.45 62.11, 202.24 311.11, 242.48 373.33 M-0.15 -1.33 C40.37 60.67, 201.25 309.57, 241.53 371.65" stroke="#000000" stroke-width="1" fill="none"></path></g><g transform="translate(789.1760378516703 1023.7959829437732) rotate(0 121.16850676511416 186.00005882482043)"><path d="M217.28 353.54 C224 356.99, 228.78 360.73, 241.78 371.28 M217.22 354.4 C227.38 360.32, 236.51 368.22, 241.91 372.22" stroke="#000000" stroke-width="1" fill="none"></path></g><g transform="translate(789.1760378516703 1023.7959829437732) rotate(0 121.16850676511416 186.00005882482043)"><path d="M234.5 342.38 C237.52 348.33, 238.65 354.44, 241.78 371.28 M234.45 343.25 C237.65 353.46, 239.89 365.82, 241.91 372.22" stroke="#000000" stroke-width="1" fill="none"></path></g></g><mask></mask><g stroke-linecap="round" transform="translate(913.333333333333 1392.9166666666663) rotate(0 183.75 163.75)"><path d="M266.25 16.94 C282.32 21.2, 297.76 34.23, 310.35 44.77 C322.93 55.32, 333.16 67, 341.77 80.19 C350.38 93.38, 357.71 108.92, 362.01 123.89 C366.3 138.85, 368.13 154.74, 367.52 169.99 C366.9 185.23, 363.99 200.69, 358.32 215.34 C352.65 229.99, 343.62 245.12, 333.5 257.89 C323.38 270.66, 310.86 282.51, 297.6 291.97 C284.35 301.42, 269.75 308.8, 253.98 314.62 C238.21 320.43, 220.12 325.32, 202.98 326.85 C185.85 328.39, 168.09 326.65, 151.16 323.84 C134.23 321.02, 116.92 316.79, 101.4 309.98 C85.88 303.17, 70.77 293.52, 58.03 282.98 C45.29 272.44, 33.82 260.03, 24.98 246.73 C16.13 233.43, 9.16 218.12, 4.95 203.19 C0.74 188.27, -1.02 172.36, -0.28 157.19 C0.46 142.01, 3.86 126.87, 9.4 112.14 C14.93 97.41, 22.9 81.66, 32.94 68.79 C42.97 55.93, 56.16 44.39, 69.62 34.97 C83.08 25.56, 97.95 18.13, 113.7 12.31 C129.44 6.49, 146.85 1.78, 164.1 0.06 C181.34 -1.66, 196.76 -2.8, 217.17 2 C237.58 6.79, 272.25 21.89, 286.54 28.85 C300.84 35.8, 304.57 41.57, 302.93 43.72 M234.09 5.36 C250.7 7.17, 267.16 17.9, 281.56 25.94 C295.95 33.99, 308.97 42.24, 320.47 53.65 C331.96 65.07, 342.94 80.4, 350.53 94.44 C358.12 108.49, 363.35 123.03, 366.01 137.92 C368.66 152.81, 368.98 168.8, 366.48 183.79 C363.97 198.78, 357.8 213.91, 350.98 227.88 C344.15 241.85, 336.51 255.59, 325.54 267.62 C314.57 279.65, 299.56 291.1, 285.17 300.05 C270.78 309, 255.55 316.73, 239.2 321.29 C222.85 325.85, 204.51 327.17, 187.08 327.44 C169.65 327.71, 151.18 326.95, 134.61 322.91 C118.05 318.87, 102.21 311.68, 87.68 303.2 C73.14 294.72, 58.86 283.73, 47.41 272.01 C35.96 260.29, 26.25 246.36, 18.98 232.89 C11.71 219.41, 6.55 206.24, 3.8 191.17 C1.04 176.1, 0.4 157.91, 2.46 142.48 C4.51 127.06, 9.27 112.71, 16.13 98.62 C22.98 84.53, 32.47 69.67, 43.6 57.97 C54.74 46.26, 68.77 36.93, 82.96 28.37 C97.15 19.82, 112.6 11.12, 128.75 6.64 C144.9 2.16, 162.35 1.4, 179.85 1.47 C197.36 1.55, 225.31 6.03, 233.78 7.1 C242.25 8.16, 231.92 5.59, 230.68 7.86" stroke="#000000" stroke-width="1" fill="none"></path></g><g transform="translate(1070.4166666666665 1476.6666666666663) rotate(0 -18.333333333333485 58.333333333333485)" stroke="none"><path fill="#000000" d="M 0,2.12 Q 0,2.12 -1.91,2.06 -3.83,2.01 -5.60,2.00 -7.37,1.99 -9.09,1.99 -10.80,2.00 -12.48,2.00 -14.17,2.01 -15.84,2.02 -17.52,2.03 -19.19,2.03 -20.86,2.04 -22.19,1.88 -23.53,1.72 -25.03,3.82 -26.53,5.92 -26.94,7.98 -27.36,10.03 -27.65,12.88 -27.93,15.72 -28.08,18.87 -28.24,22.01 -28.32,26.22 -28.40,30.43 -28.46,33.12 -28.53,35.81 -26.73,38.58 -24.93,41.34 -23.22,43.56 -21.51,45.78 -19.84,47.68 -18.16,49.57 -16.51,51.33 -14.87,53.08 -13.36,53.65 -11.86,54.21 -10.03,55.62 -8.21,57.02 -7.32,58.65 -6.43,60.28 -3.76,61.89 -1.10,63.50 0.48,65.06 2.08,66.62 3.68,68.24 5.28,69.86 6.81,70.42 8.34,70.98 9.34,72.38 10.33,73.78 11.41,74.07 12.49,74.36 13.46,75.89 14.43,77.41 14.76,79.13 15.10,80.84 15.22,82.52 15.34,84.20 15.26,86.87 15.18,89.55 14.09,91.95 12.99,94.35 12.64,96.04 12.28,97.73 10.00,100.70 7.72,103.67 6.85,105.63 5.98,107.60 4.44,108.84 2.91,110.08 0.33,111.41 -2.23,112.75 -4.19,114.19 -6.15,115.63 -9.19,116.38 -12.23,117.12 -16.40,117.40 -20.57,117.67 -23.27,117.77 -25.97,117.88 -28.08,117.92 -30.19,117.97 -32.05,118.04 -33.91,118.11 -35.66,118.18 -37.41,118.24 -40.19,118.17 -42.96,118.09 -44.50,117.08 -46.03,116.07 -47.37,115.74 -48.70,115.42 -50.24,113.19 -51.77,110.95 -51.87,110.64 -51.98,110.34 -51.98,110.01 -51.99,109.69 -51.88,109.38 -51.78,109.07 -51.59,108.80 -51.39,108.54 -51.12,108.36 -50.86,108.17 -50.54,108.08 -50.23,107.99 -49.90,108.01 -49.58,108.02 -49.27,108.14 -48.97,108.26 -48.72,108.47 -48.47,108.68 -48.30,108.96 -48.13,109.23 -48.06,109.55 -47.98,109.87 -48.02,110.19 -48.05,110.52 -48.18,110.82 -48.32,111.11 -48.54,111.35 -48.76,111.59 -49.05,111.74 -49.34,111.90 -49.66,111.95 -49.98,112.01 -50.30,111.96 -50.62,111.91 -50.91,111.76 -51.20,111.61 -51.43,111.37 -51.65,111.14 -51.79,110.84 -51.93,110.55 -51.97,110.23 -52.01,109.90 -51.94,109.58 -51.87,109.26 -51.71,108.98 -51.54,108.70 -51.29,108.49 -51.05,108.28 -50.74,108.15 -50.44,108.03 -50.12,108.01 -49.79,107.99 -49.48,108.08 -49.16,108.16 -48.89,108.34 -48.62,108.52 -48.42,108.78 -48.22,109.04 -48.22,109.04 -48.22,109.04 -47.63,110.74 -47.03,112.44 -45.49,112.93 -43.95,113.42 -43.23,114.32 -42.50,115.22 -39.96,115.14 -37.42,115.05 -35.68,115.10 -33.94,115.15 -32.10,115.18 -30.26,115.21 -28.18,115.15 -26.09,115.10 -23.43,114.97 -20.77,114.84 -16.83,114.56 -12.89,114.28 -10.39,113.73 -7.88,113.18 -5.81,111.56 -3.75,109.95 -1.35,108.61 1.03,107.27 2.17,106.72 3.30,106.17 4.21,103.93 5.11,101.68 7.00,99.26 8.90,96.84 9.34,94.87 9.78,92.89 10.57,91.17 11.35,89.45 11.19,86.96 11.04,84.46 10.96,82.98 10.89,81.49 10.67,79.45 10.45,77.40 9.01,76.63 7.58,75.86 7.17,74.77 6.76,73.68 4.99,72.89 3.21,72.11 1.54,70.55 -0.12,68.99 -1.71,67.59 -3.31,66.18 -4.65,65.07 -6.00,63.95 -7.50,62.95 -8.99,61.94 -9.52,60.56 -10.05,59.19 -11.57,58.03 -13.08,56.88 -14.93,55.94 -16.77,54.99 -18.50,53.20 -20.22,51.40 -21.97,49.45 -23.71,47.50 -25.54,45.17 -27.37,42.85 -29.39,39.44 -31.41,36.03 -31.44,33.22 -31.47,30.40 -31.47,26.15 -31.47,21.91 -31.43,18.68 -31.38,15.46 -31.21,12.35 -31.05,9.24 -30.39,6.30 -29.74,3.36 -28.55,1.99 -27.37,0.61 -26.12,-0.55 -24.87,-1.72 -22.86,-1.88 -20.86,-2.04 -19.19,-2.03 -17.52,-2.03 -15.84,-2.02 -14.17,-2.01 -12.48,-2.00 -10.80,-2.00 -9.09,-1.99 -7.37,-1.99 -5.60,-2.00 -3.83,-2.01 -1.91,-2.06 0,-2.12 0.25,-2.09 0.50,-2.06 0.74,-1.96 0.98,-1.87 1.19,-1.73 1.40,-1.58 1.57,-1.39 1.74,-1.20 1.86,-0.97 1.98,-0.75 2.04,-0.50 2.10,-0.25 2.10,0.00 2.10,0.25 2.04,0.50 1.98,0.75 1.86,0.97 1.74,1.20 1.57,1.39 1.40,1.58 1.19,1.73 0.98,1.87 0.74,1.96 0.50,2.06 0.25,2.09 -0.00,2.12 -0.00,2.12 L 0,2.12 Z"></path></g><g transform="translate(1133.7499999999995 1546.6666666666663) rotate(0 21.666666666666742 41.66666666666674)" stroke="none"><path fill="#000000" d="M 1.90,0 Q 1.90,0 1.88,1.91 1.85,3.83 1.86,5.60 1.86,7.37 1.88,9.07 1.89,10.76 2.72,13.13 3.56,15.50 3.92,18.65 4.28,21.81 5.28,22.71 6.28,23.62 7.64,25.11 9.00,26.61 10.32,27.03 11.65,27.45 13.10,27.63 14.56,27.80 17.05,27.98 19.55,28.15 22.55,28.25 25.55,28.34 27.79,28.40 30.03,28.46 32.79,28.53 35.56,28.59 36.34,27.74 37.11,26.89 37.33,25.81 37.55,24.73 37.78,22.47 38.02,20.21 38.13,18.22 38.24,16.24 38.25,14.44 38.26,12.64 38.24,10.91 38.22,9.18 38.25,8.97 38.28,8.76 38.36,8.57 38.44,8.37 38.56,8.20 38.69,8.03 38.85,7.90 39.01,7.76 39.20,7.67 39.39,7.57 39.59,7.53 39.80,7.48 40.01,7.49 40.22,7.49 40.42,7.55 40.63,7.60 40.81,7.70 40.99,7.80 41.15,7.95 41.30,8.09 41.42,8.27 41.53,8.44 41.60,8.64 41.67,8.84 41.70,9.05 41.72,9.26 41.83,10.51 41.94,11.77 41.99,13.17 42.05,14.58 41.95,17.10 41.85,19.61 41.78,25.47 41.70,31.33 42.60,39.48 43.50,47.63 43.88,55.01 44.25,62.40 44.39,66.49 44.54,70.57 44.59,73.28 44.64,75.98 44.71,77.97 44.77,79.96 44.76,80.13 44.74,80.30 44.69,80.47 44.63,80.63 44.53,80.78 44.44,80.92 44.31,81.04 44.18,81.16 44.03,81.25 43.88,81.33 43.71,81.38 43.54,81.43 43.37,81.43 43.19,81.44 43.02,81.40 42.85,81.36 42.70,81.28 42.54,81.21 42.41,81.10 42.27,80.98 42.17,80.84 42.07,80.70 42.00,80.54 41.93,80.38 41.91,80.21 41.88,80.03 41.98,79.65 42.08,79.27 42.23,79.09 42.37,78.91 42.57,78.78 42.77,78.66 43.00,78.61 43.23,78.55 43.46,78.57 43.69,78.59 43.91,78.69 44.12,78.79 44.29,78.94 44.47,79.10 44.58,79.31 44.69,79.51 44.73,79.74 44.78,79.97 44.74,80.20 44.71,80.44 44.60,80.64 44.49,80.85 44.33,81.02 44.16,81.18 43.95,81.28 43.74,81.38 43.50,81.41 43.27,81.44 43.04,81.39 42.81,81.35 42.61,81.23 42.41,81.11 42.25,80.94 42.10,80.76 42.01,80.54 41.92,80.33 41.90,80.09 41.89,79.86 41.95,79.63 42.01,79.41 42.13,79.21 42.26,79.02 42.45,78.87 42.63,78.73 42.85,78.65 43.07,78.57 43.31,78.57 43.54,78.56 43.76,78.63 43.99,78.71 44.18,78.85 44.36,78.98 44.50,79.18 44.63,79.37 44.70,79.59 44.76,79.82 44.76,80.05 44.75,80.29 44.76,80.12 44.77,79.96 44.76,80.13 44.74,80.30 44.69,80.47 44.63,80.63 44.53,80.78 44.44,80.92 44.31,81.04 44.18,81.16 44.03,81.25 43.88,81.33 43.71,81.38 43.54,81.43 43.37,81.43 43.19,81.44 43.02,81.40 42.85,81.36 42.70,81.28 42.54,81.21 42.41,81.10 42.27,80.98 42.17,80.84 42.07,80.70 42.00,80.54 41.93,80.38 41.91,80.21 41.88,80.03 41.84,78.05 41.80,76.06 41.70,73.38 41.61,70.70 41.41,66.63 41.20,62.57 40.76,55.28 40.32,48.00 39.30,39.67 38.28,31.33 38.21,25.47 38.14,19.61 38.04,17.10 37.94,14.59 37.99,13.18 38.04,11.78 38.13,10.48 38.22,9.18 38.25,8.97 38.28,8.76 38.36,8.57 38.44,8.37 38.56,8.20 38.69,8.03 38.85,7.90 39.01,7.76 39.20,7.67 39.39,7.57 39.59,7.53 39.80,7.48 40.01,7.49 40.22,7.49 40.42,7.55 40.62,7.60 40.81,7.70 40.99,7.80 41.15,7.95 41.30,8.09 41.42,8.27 41.53,8.44 41.60,8.64 41.67,8.84 41.70,9.05 41.72,9.26 41.66,10.99 41.61,12.72 41.54,14.55 41.47,16.39 41.40,18.44 41.32,20.50 41.11,23.23 40.90,25.96 40.09,27.61 39.27,29.25 37.61,30.31 35.94,31.37 32.97,31.42 30.00,31.47 27.75,31.49 25.50,31.50 22.45,31.50 19.40,31.50 16.68,31.44 13.96,31.38 12.16,31.01 10.36,30.65 8.55,29.79 6.74,28.92 5.22,27.40 3.70,25.88 2.44,24.20 1.18,22.53 0.72,19.60 0.27,16.67 -0.81,13.75 -1.89,10.84 -1.88,9.11 -1.86,7.37 -1.86,5.60 -1.85,3.83 -1.88,1.91 -1.90,0 -1.88,-0.22 -1.85,-0.45 -1.77,-0.67 -1.68,-0.88 -1.55,-1.07 -1.42,-1.26 -1.25,-1.41 -1.08,-1.57 -0.88,-1.67 -0.67,-1.78 -0.45,-1.83 -0.22,-1.89 0.00,-1.89 0.23,-1.89 0.45,-1.83 0.67,-1.78 0.88,-1.67 1.08,-1.57 1.25,-1.41 1.42,-1.26 1.55,-1.07 1.68,-0.88 1.77,-0.67 1.85,-0.45 1.88,-0.22 1.90,0.00 1.90,0.00 L 1.90,0 Z"></path></g><g stroke-linecap="round"><g transform="translate(531.6572204667858 987.3332745085128) rotate(0 -120.85834496114404 186.77292498979716)"><path d="M1.06 1.12 C-39.16 63.43, -201.57 310.98, -242.06 372.88 M0.16 0.66 C-40.11 62.68, -202.37 308.77, -242.78 370.96" stroke="#000000" stroke-width="1" fill="none"></path></g><g transform="translate(531.6572204667858 987.3332745085128) rotate(0 -120.85834496114404 186.77292498979716)"><path d="M-234.05 342.48 C-237.15 349.83, -239.42 355.47, -241.33 369.25 M-236.13 342.28 C-237.73 351.21, -239.53 361.36, -243.37 370.59" stroke="#000000" stroke-width="1" fill="none"></path></g><g transform="translate(531.6572204667858 987.3332745085128) rotate(0 -120.85834496114404 186.77292498979716)"><path d="M-216.88 353.73 C-223.99 358.54, -230.35 361.5, -241.33 369.25 M-218.97 353.52 C-226.4 358.68, -233.94 365.07, -243.37 370.59" stroke="#000000" stroke-width="1" fill="none"></path></g></g><mask></mask><g stroke-linecap="round" transform="translate(10 1346.25) rotate(0 183.75 163.75)"><path d="M193.33 -0.05 C209.92 -1.66, 227.92 4.6, 244.21 9.87 C260.51 15.14, 276.96 22.69, 291.1 31.55 C305.23 40.4, 318.33 50.97, 329.02 62.98 C339.72 75, 348.83 89.28, 355.26 103.62 C361.7 117.96, 366.24 133.85, 367.66 149 C369.08 164.14, 367.21 179.31, 363.78 194.49 C360.34 209.67, 355.05 226.47, 347.05 240.08 C339.05 253.69, 327.78 265.13, 315.78 276.14 C303.78 287.15, 289.76 298.43, 275.06 306.16 C260.36 313.88, 244.19 319.02, 227.59 322.49 C210.99 325.96, 192.91 327.64, 175.46 327 C158 326.35, 139.14 323.81, 122.86 318.64 C106.57 313.46, 91.8 304.98, 77.75 295.96 C63.7 286.93, 49.2 276.3, 38.57 264.5 C27.95 252.7, 20.14 239.34, 13.98 225.14 C7.81 210.95, 3.27 194.65, 1.59 179.35 C-0.09 164.05, 0.64 148.69, 3.9 133.36 C7.17 118.03, 13.24 101.32, 21.18 87.38 C29.12 73.45, 39.72 60.64, 51.55 49.76 C63.37 38.88, 77.17 29.8, 92.12 22.11 C107.07 14.42, 123.45 7.21, 141.24 3.6 C159.04 0, 188.78 0.42, 198.91 0.49 C209.03 0.56, 202.43 1.47, 201.98 4.05 M208.72 2.43 C225.22 2.14, 243.13 8.75, 258.92 14.8 C274.71 20.84, 290.19 28.91, 303.45 38.69 C316.71 48.46, 329.02 60.44, 338.49 73.45 C347.95 86.45, 355.17 101.76, 360.22 116.72 C365.28 131.68, 368.56 148, 368.8 163.22 C369.03 178.44, 366.4 193.32, 361.63 208.04 C356.86 222.76, 349.43 238.26, 340.18 251.53 C330.93 264.79, 319.17 277.6, 306.12 287.63 C293.07 297.66, 277.96 305.17, 261.87 311.69 C245.79 318.21, 226.98 324.16, 209.62 326.77 C192.25 329.37, 174.71 329.39, 157.67 327.32 C140.64 325.25, 122.75 320.91, 107.4 314.35 C92.05 307.8, 78.26 298.15, 65.55 287.98 C52.84 277.81, 40.76 266.34, 31.14 253.35 C21.53 240.37, 13.04 224.96, 7.87 210.07 C2.69 195.18, 0.16 179.09, 0.07 163.99 C-0.02 148.9, 2.41 134.13, 7.33 119.5 C12.24 104.88, 20.47 89.6, 29.55 76.25 C38.63 62.91, 49.13 49.38, 61.8 39.41 C74.47 29.45, 89.57 22.94, 105.57 16.44 C121.56 9.93, 140.32 2.65, 157.74 0.36 C175.17 -1.92, 201.64 2.22, 210.1 2.72 C218.57 3.22, 209.13 0.65, 208.54 3.36" stroke="#000000" stroke-width="1" fill="none"></path></g><g transform="translate(1817.6259689922472 840.1666666666665) rotate(0 140 93)"><text x="0" y="64" font-family="Helvetica, Segoe UI Emoji" font-size="77.86046511627906px" fill="#5f3dc4" text-anchor="start" style="white-space: pre;" direction="ltr">Player 1</text><text x="0" y="157" font-family="Helvetica, Segoe UI Emoji" font-size="77.86046511627906px" fill="#5f3dc4" text-anchor="start" style="white-space: pre;" direction="ltr"></text></g><g transform="translate(1820.9593023255807 1570.1666666666665) rotate(0 140 93)"><text x="0" y="64" font-family="Helvetica, Segoe UI Emoji" font-size="77.86046511627906px" fill="#c92a2a" text-anchor="start" style="white-space: pre;" direction="ltr">Player 0</text><text x="0" y="157" font-family="Helvetica, Segoe UI Emoji" font-size="77.86046511627906px" fill="#c92a2a" text-anchor="start" style="white-space: pre;" direction="ltr"></text></g><g transform="translate(183.74999999999977 1439.9999999999998) rotate(0 -26.66666666666663 58.333333333333485)" stroke="none"><path fill="#000000" d="M -0.52,1.57 Q -0.52,1.57 -3.38,0.57 -6.24,-0.43 -8.31,-0.84 -10.38,-1.26 -12.20,-1.39 -14.02,-1.53 -19.67,-2.60 -25.33,-3.67 -30.51,-4.13 -35.68,-4.58 -40.75,-4.78 -45.81,-4.98 -48.73,-4.14 -51.65,-3.30 -53.76,-2.07 -55.88,-0.84 -56.58,0.48 -57.29,1.81 -57.62,5.05 -57.96,8.29 -58.15,12.60 -58.33,16.92 -57.47,22.47 -56.61,28.03 -54.38,33.16 -52.14,38.29 -47.43,44.22 -42.72,50.16 -35.02,56.48 -27.33,62.81 -17.37,69.33 -7.41,75.85 -0.23,81.55 6.94,87.25 10.06,90.70 13.17,94.14 14.55,96.86 15.94,99.58 15.66,101.01 15.39,102.44 14.16,104.05 12.93,105.67 10.33,107.34 7.72,109.02 4.72,110.63 1.72,112.25 -5.38,114.87 -12.48,117.50 -16.48,118.61 -20.47,119.72 -27.07,120.20 -33.67,120.68 -38.36,120.87 -43.04,121.06 -47.79,122.08 -52.53,123.11 -57.58,123.55 -62.63,124.00 -65.30,122.73 -67.96,121.45 -68.13,119.91 -68.30,118.37 -66.55,115.37 -64.81,112.36 -64.61,112.15 -64.42,111.94 -64.17,111.80 -63.92,111.66 -63.64,111.61 -63.36,111.56 -63.07,111.60 -62.79,111.64 -62.53,111.77 -62.28,111.90 -62.08,112.11 -61.88,112.31 -61.76,112.57 -61.63,112.83 -61.60,113.11 -61.56,113.40 -61.62,113.68 -61.67,113.96 -61.82,114.21 -61.96,114.45 -62.18,114.64 -62.39,114.83 -62.66,114.94 -62.92,115.05 -63.21,115.07 -63.49,115.09 -63.77,115.02 -64.05,114.95 -64.29,114.79 -64.53,114.63 -64.70,114.41 -64.88,114.18 -64.97,113.91 -65.07,113.64 -65.07,113.36 -65.08,113.07 -64.99,112.80 -64.90,112.52 -64.73,112.29 -64.56,112.06 -64.33,111.90 -64.10,111.73 -63.82,111.65 -63.55,111.57 -63.26,111.58 -62.97,111.59 -62.71,111.70 -62.44,111.80 -62.22,111.98 -62.00,112.16 -61.85,112.41 -61.70,112.65 -61.63,112.93 -61.56,113.21 -61.59,113.49 -61.62,113.78 -61.73,114.04 -61.85,114.30 -61.85,114.30 -61.85,114.30 -63.53,116.52 -65.22,118.75 -65.52,119.78 -65.82,120.81 -64.29,121.08 -62.76,121.35 -57.93,120.91 -53.10,120.47 -48.13,119.40 -43.16,118.34 -38.52,118.13 -33.87,117.92 -27.55,117.46 -21.22,117.00 -17.36,115.90 -13.49,114.79 -6.60,112.21 0.28,109.63 3.16,108.01 6.03,106.39 8.22,104.97 10.41,103.55 11.99,101.78 13.57,100.02 12.38,97.96 11.19,95.90 8.24,92.61 5.29,89.33 -1.79,83.70 -8.87,78.08 -18.95,71.47 -29.03,64.87 -36.93,58.36 -44.82,51.84 -49.72,45.61 -54.63,39.39 -56.98,33.93 -59.33,28.47 -60.23,22.64 -61.14,16.81 -60.97,12.38 -60.81,7.95 -60.32,4.15 -59.83,0.34 -58.59,-1.37 -57.35,-3.09 -54.88,-4.52 -52.42,-5.95 -49.08,-6.87 -45.75,-7.79 -40.60,-7.62 -35.44,-7.45 -30.12,-7.02 -24.79,-6.60 -19.26,-5.61 -13.73,-4.62 -11.78,-4.41 -9.83,-4.20 -7.54,-3.80 -5.25,-3.40 -2.36,-2.48 0.52,-1.57 0.70,-1.48 0.88,-1.40 1.04,-1.27 1.19,-1.14 1.31,-0.98 1.43,-0.82 1.51,-0.64 1.59,-0.46 1.62,-0.26 1.65,-0.06 1.64,0.13 1.62,0.33 1.56,0.52 1.49,0.71 1.39,0.87 1.28,1.04 1.14,1.18 0.99,1.32 0.82,1.42 0.65,1.52 0.45,1.58 0.26,1.63 0.06,1.64 -0.13,1.65 -0.32,1.61 -0.52,1.57 -0.52,1.57 L -0.52,1.57 Z"></path></g><g transform="translate(233.75 1516.6666666666663) rotate(0 24.999999999999773 25)" stroke="none"><path fill="#000000" d="M 0,-1.67 Q 0,-1.67 1.91,-1.67 3.83,-1.67 5.60,-1.70 7.37,-1.73 9.09,-1.76 10.80,-1.80 13.47,-1.72 16.15,-1.65 18.53,-0.58 20.91,0.48 25.51,1.84 30.11,3.20 36.02,5.75 41.93,8.30 45.33,9.37 48.72,10.45 50.54,12.31 52.35,14.18 52.20,16.13 52.04,18.07 50.78,19.99 49.53,21.91 47.85,22.89 46.18,23.88 44.41,24.29 42.64,24.70 40.93,24.88 39.21,25.05 37.52,25.13 35.83,25.21 34.17,25.25 32.51,25.29 32.27,25.26 32.03,25.24 31.81,25.16 31.58,25.09 31.38,24.96 31.18,24.83 31.01,24.65 30.85,24.48 30.73,24.27 30.61,24.06 30.54,23.83 30.48,23.60 30.47,23.36 30.46,23.12 30.51,22.88 30.56,22.65 30.67,22.43 30.77,22.22 30.93,22.03 31.08,21.85 31.27,21.71 31.47,21.56 31.69,21.47 31.91,21.38 32.15,21.34 32.38,21.30 33.54,22.06 34.69,22.82 37.06,24.77 39.43,26.71 40.31,28.54 41.19,30.37 41.51,32.18 41.83,33.99 41.74,36.15 41.66,38.31 40.49,39.59 39.33,40.86 37.57,41.37 35.82,41.87 34.15,42.01 32.48,42.15 30.18,42.96 27.88,43.77 25.65,44.16 23.41,44.55 19.73,45.59 16.05,46.63 13.64,47.96 11.22,49.28 9.01,49.92 6.79,50.56 4.55,50.77 2.31,50.98 1.06,50.06 -0.18,49.14 -1.52,46.86 -2.86,44.59 -0.01,43.46 2.82,42.33 4.06,43.94 5.31,45.55 5.43,45.90 5.56,46.24 5.57,46.61 5.57,46.97 5.47,47.32 5.36,47.67 5.14,47.97 4.93,48.27 4.63,48.48 4.33,48.70 3.98,48.80 3.63,48.91 3.26,48.90 2.89,48.89 2.55,48.76 2.21,48.63 1.92,48.40 1.64,48.17 1.44,47.86 1.24,47.55 1.15,47.20 1.07,46.84 1.10,46.47 1.13,46.11 1.28,45.77 1.42,45.43 1.67,45.16 1.91,44.89 2.23,44.71 2.55,44.53 2.91,44.46 3.27,44.39 3.64,44.45 4.00,44.50 4.33,44.66 4.66,44.82 4.92,45.08 5.17,45.34 5.34,45.67 5.50,46.00 5.55,46.37 5.60,46.73 5.52,47.09 5.45,47.45 5.27,47.77 5.09,48.09 4.82,48.33 4.54,48.58 4.21,48.72 3.87,48.86 3.50,48.89 3.14,48.92 2.78,48.83 2.43,48.74 2.12,48.54 1.81,48.35 1.58,48.06 1.35,47.77 1.35,47.77 1.35,47.77 0.68,46.87 0.00,45.97 1.54,47.10 3.08,48.24 4.49,47.93 5.91,47.61 7.77,47.03 9.64,46.45 12.33,44.88 15.02,43.32 18.83,42.08 22.63,40.84 24.50,40.37 26.36,39.89 29.20,38.68 32.04,37.47 33.43,37.36 34.82,37.25 36.42,37.06 38.02,36.88 37.72,35.78 37.42,34.69 37.24,33.36 37.06,32.03 36.76,30.98 36.47,29.93 35.37,29.06 34.28,28.18 33.40,26.73 32.51,25.29 32.27,25.26 32.03,25.24 31.81,25.16 31.58,25.09 31.38,24.96 31.18,24.83 31.01,24.65 30.85,24.48 30.73,24.27 30.61,24.06 30.54,23.83 30.48,23.60 30.47,23.36 30.46,23.12 30.51,22.88 30.56,22.65 30.67,22.43 30.77,22.22 30.93,22.03 31.08,21.85 31.27,21.71 31.47,21.56 31.69,21.47 31.91,21.38 32.15,21.34 32.38,21.30 34.04,21.30 35.70,21.29 37.31,21.27 38.92,21.24 40.44,21.16 41.97,21.09 43.33,20.91 44.70,20.74 45.87,20.35 47.05,19.96 48.00,18.64 48.95,17.31 49.46,16.15 49.98,14.98 48.87,14.03 47.77,13.07 44.28,12.02 40.79,10.97 35.03,8.53 29.27,6.09 24.43,4.71 19.60,3.34 17.81,2.50 16.02,1.65 13.41,1.72 10.80,1.80 9.09,1.76 7.37,1.73 5.60,1.70 3.83,1.67 1.91,1.67 0,1.67 -0.20,1.65 -0.40,1.62 -0.59,1.55 -0.77,1.48 -0.94,1.37 -1.11,1.25 -1.24,1.10 -1.38,0.95 -1.47,0.77 -1.56,0.59 -1.61,0.39 -1.66,0.20 -1.66,-0.00 -1.66,-0.20 -1.61,-0.39 -1.56,-0.59 -1.47,-0.77 -1.38,-0.95 -1.24,-1.10 -1.11,-1.25 -0.94,-1.37 -0.77,-1.48 -0.59,-1.55 -0.40,-1.62 -0.20,-1.65 0.00,-1.67 0.00,-1.67 L 0,-1.67 Z"></path></g><g transform="translate(2387.0833333333326 176.66666666666663) rotate(0 0.00005000000010113581 0.00004999999999988347)" stroke="none"><path fill="#000000" d="M 1.57,-1.57 Q 1.57,-1.57 1.77,-1.27 1.98,-0.98 2.09,-0.64 2.20,-0.29 2.19,0.05 2.18,0.41 2.05,0.75 1.93,1.09 1.70,1.37 1.48,1.65 1.18,1.84 0.87,2.04 0.52,2.12 0.18,2.21 -0.17,2.18 -0.53,2.15 -0.86,2.01 -1.19,1.87 -1.46,1.63 -1.73,1.39 -1.90,1.07 -2.08,0.76 -2.15,0.41 -2.21,0.05 -2.17,-0.29 -2.12,-0.65 -1.96,-0.97 -1.80,-1.29 -1.54,-1.54 -1.29,-1.80 -0.97,-1.96 -0.65,-2.12 -0.29,-2.17 0.06,-2.21 0.41,-2.15 0.76,-2.08 1.07,-1.90 1.39,-1.73 1.63,-1.46 1.87,-1.19 2.01,-0.86 2.15,-0.53 2.18,-0.17 2.21,0.18 2.12,0.52 2.03,0.87 1.84,1.18 1.65,1.48 1.37,1.70 1.09,1.93 0.75,2.05 0.41,2.18 0.05,2.19 -0.30,2.20 -0.64,2.09 -0.98,1.98 -1.27,1.77 -1.57,1.56 -1.57,1.57 -1.57,1.57 -1.73,1.35 -1.90,1.14 -2.01,0.90 -2.12,0.66 -2.16,0.39 -2.21,0.13 -2.20,-0.13 -2.18,-0.40 -2.10,-0.65 -2.02,-0.91 -1.88,-1.14 -1.74,-1.36 -1.55,-1.55 -1.36,-1.74 -1.14,-1.88 -0.91,-2.02 -0.65,-2.10 -0.40,-2.18 -0.13,-2.20 0.13,-2.21 0.39,-2.16 0.66,-2.12 0.90,-2.01 1.14,-1.90 1.35,-1.73 1.57,-1.57 1.57,-1.57 L 1.57,-1.57 Z"></path></g><g transform="translate(2387.0833333333326 176.66666666666663) rotate(0 0.00005000000010113581 0.00004999999999988347)" stroke="none"><path fill="#000000" d="M 1.57,-1.57 Q 1.57,-1.57 1.77,-1.27 1.98,-0.98 2.09,-0.64 2.20,-0.29 2.19,0.05 2.18,0.41 2.05,0.75 1.93,1.09 1.70,1.37 1.48,1.65 1.18,1.84 0.87,2.04 0.52,2.12 0.18,2.21 -0.17,2.18 -0.53,2.15 -0.86,2.01 -1.19,1.87 -1.46,1.63 -1.73,1.39 -1.90,1.07 -2.08,0.76 -2.15,0.41 -2.21,0.05 -2.17,-0.29 -2.12,-0.65 -1.96,-0.97 -1.80,-1.29 -1.54,-1.54 -1.29,-1.80 -0.97,-1.96 -0.65,-2.12 -0.29,-2.17 0.06,-2.21 0.41,-2.15 0.76,-2.08 1.07,-1.90 1.39,-1.73 1.63,-1.46 1.87,-1.19 2.01,-0.86 2.15,-0.53 2.18,-0.17 2.21,0.18 2.12,0.52 2.03,0.87 1.84,1.18 1.65,1.48 1.37,1.70 1.09,1.93 0.75,2.05 0.41,2.18 0.05,2.19 -0.30,2.20 -0.64,2.09 -0.98,1.98 -1.27,1.77 -1.57,1.56 -1.57,1.57 -1.57,1.57 -1.73,1.35 -1.90,1.14 -2.01,0.90 -2.12,0.66 -2.16,0.39 -2.21,0.13 -2.20,-0.13 -2.18,-0.40 -2.10,-0.65 -2.02,-0.91 -1.88,-1.14 -1.74,-1.36 -1.55,-1.55 -1.36,-1.74 -1.14,-1.88 -0.91,-2.02 -0.65,-2.10 -0.40,-2.18 -0.13,-2.20 0.13,-2.21 0.39,-2.16 0.66,-2.12 0.90,-2.01 1.14,-1.90 1.35,-1.73 1.57,-1.57 1.57,-1.57 L 1.57,-1.57 Z"></path></g></svg>
